<svg xmlns="http://www.w3.org/2000/svg" xmlns:xlink="http://www.w3.org/1999/xlink" zoomAndPan="magnify" preserveAspectRatio="xMidYMid meet" version="1.0" viewBox="2.15 11.21 85.33 24.24"><defs><g></g><clipPath id="8424e1146c"><path d="M 2.15625 11.214844 L 29.339844 11.214844 L 29.339844 35.457031 L 2.15625 35.457031 Z M 2.15625 11.214844 " clip-rule="nonzero"></path></clipPath><clipPath id="954b754f3a"><path d="M 15.746094 35.410156 C 14.667969 35.410156 13.789062 34.546875 13.789062 33.492188 C 13.789062 32.808594 14.164062 32.179688 14.753906 31.839844 L 14.753906 28.355469 L 12.824219 28.355469 L 12.824219 31.53125 C 12.824219 32.066406 12.378906 32.5 11.832031 32.5 L 10.421875 32.5 C 10.070312 33.082031 9.429688 33.449219 8.734375 33.449219 C 7.65625 33.449219 6.777344 32.589844 6.777344 31.53125 C 6.777344 30.472656 7.65625 29.613281 8.734375 29.613281 C 9.429688 29.613281 10.070312 29.976562 10.417969 30.558594 L 10.84375 30.558594 L 10.84375 28.355469 L 6.753906 28.355469 C 4.214844 28.355469 2.152344 26.332031 2.152344 23.84375 C 2.152344 21.796875 3.578125 20.007812 5.578125 19.492188 C 5.746094 14.933594 9.601562 11.261719 14.289062 11.261719 C 17.609375 11.261719 20.558594 13.042969 22.050781 15.925781 C 22.355469 15.878906 22.664062 15.859375 22.96875 15.859375 C 26.480469 15.859375 29.339844 18.660156 29.339844 22.105469 C 29.339844 25.550781 26.480469 28.355469 22.96875 28.355469 C 22.945312 28.355469 22.921875 28.351562 22.898438 28.351562 C 22.878906 28.351562 22.859375 28.355469 22.839844 28.355469 L 20.652344 28.355469 L 20.652344 30.558594 L 21.074219 30.558594 C 21.421875 29.976562 22.0625 29.613281 22.757812 29.613281 C 23.835938 29.613281 24.714844 30.472656 24.714844 31.53125 C 24.714844 32.585938 23.835938 33.449219 22.757812 33.449219 C 22.0625 33.449219 21.421875 33.082031 21.074219 32.5 L 19.660156 32.5 C 19.113281 32.5 18.667969 32.066406 18.667969 31.53125 L 18.667969 28.355469 L 16.738281 28.355469 L 16.738281 31.839844 C 17.332031 32.179688 17.703125 32.808594 17.703125 33.492188 C 17.703125 34.546875 16.824219 35.410156 15.746094 35.410156 Z M 12.164062 27.707031 L 15.417969 27.707031 L 15.417969 32.246094 L 15.21875 32.332031 C 14.753906 32.535156 14.449219 32.992188 14.449219 33.488281 C 14.449219 34.191406 15.03125 34.761719 15.746094 34.761719 C 16.460938 34.761719 17.042969 34.191406 17.042969 33.488281 C 17.042969 32.992188 16.742188 32.535156 16.273438 32.332031 L 16.078125 32.246094 L 16.078125 27.707031 L 19.328125 27.707031 L 19.328125 31.53125 C 19.328125 31.707031 19.476562 31.855469 19.660156 31.855469 L 21.488281 31.855469 L 21.574219 32.046875 C 21.785156 32.503906 22.25 32.800781 22.757812 32.800781 C 23.472656 32.800781 24.054688 32.230469 24.054688 31.53125 C 24.054688 30.828125 23.472656 30.261719 22.757812 30.261719 C 22.25 30.261719 21.785156 30.554688 21.574219 31.015625 L 21.488281 31.207031 L 19.988281 31.207031 L 19.988281 27.707031 L 22.839844 27.707031 C 22.847656 27.707031 22.859375 27.707031 22.867188 27.703125 L 22.914062 27.703125 C 22.933594 27.707031 22.949219 27.707031 22.96875 27.707031 C 26.117188 27.707031 28.679688 25.191406 28.679688 22.105469 C 28.679688 19.015625 26.117188 16.503906 22.96875 16.503906 C 22.621094 16.503906 22.269531 16.539062 21.925781 16.601562 L 21.671875 16.648438 L 21.5625 16.421875 C 20.222656 13.640625 17.433594 11.910156 14.289062 11.910156 C 9.875 11.910156 6.261719 15.429688 6.234375 19.753906 L 6.230469 20.019531 L 5.96875 20.070312 C 4.140625 20.429688 2.8125 22.019531 2.8125 23.84375 C 2.8125 25.972656 4.582031 27.707031 6.753906 27.707031 L 11.503906 27.707031 L 11.503906 31.207031 L 10.003906 31.207031 L 9.917969 31.015625 C 9.707031 30.554688 9.246094 30.261719 8.734375 30.261719 C 8.019531 30.261719 7.4375 30.828125 7.4375 31.53125 C 7.4375 32.230469 8.019531 32.800781 8.734375 32.800781 C 9.246094 32.800781 9.707031 32.503906 9.917969 32.046875 L 10.003906 31.855469 L 11.832031 31.855469 C 12.015625 31.855469 12.164062 31.707031 12.164062 31.53125 Z M 12.164062 27.707031 " clip-rule="nonzero"></path></clipPath><linearGradient x1="-8.282856" gradientTransform="matrix(0.220289, 0, 0, 0.21592, 1.648437, 9.517309)" y1="26.416293" x2="132.690405" gradientUnits="userSpaceOnUse" y2="107.80608" id="043f19b312"><stop stop-opacity="1" stop-color="rgb(88.198853%, 0%, 100%)" offset="0"></stop><stop stop-opacity="1" stop-color="rgb(88.198853%, 0%, 100%)" offset="0.125"></stop><stop stop-opacity="1" stop-color="rgb(88.198853%, 0%, 100%)" offset="0.15625"></stop><stop stop-opacity="1" stop-color="rgb(88.069153%, 0.100708%, 100%)" offset="0.164063"></stop><stop stop-opacity="1" stop-color="rgb(87.478638%, 0.563049%, 100%)" offset="0.167969"></stop><stop stop-opacity="1" stop-color="rgb(87.017822%, 0.924683%, 100%)" offset="0.171875"></stop><stop stop-opacity="1" stop-color="rgb(86.557007%, 1.28479%, 100%)" offset="0.175781"></stop><stop stop-opacity="1" stop-color="rgb(86.097717%, 1.646423%, 100%)" offset="0.179688"></stop><stop stop-opacity="1" stop-color="rgb(85.636902%, 2.006531%, 100%)" offset="0.183594"></stop><stop stop-opacity="1" stop-color="rgb(85.176086%, 2.368164%, 100%)" offset="0.1875"></stop><stop stop-opacity="1" stop-color="rgb(84.715271%, 2.728271%, 100%)" offset="0.191406"></stop><stop stop-opacity="1" stop-color="rgb(84.255981%, 3.089905%, 100%)" offset="0.195313"></stop><stop stop-opacity="1" stop-color="rgb(83.795166%, 3.450012%, 100%)" offset="0.199219"></stop><stop stop-opacity="1" stop-color="rgb(83.334351%, 3.811646%, 100%)" offset="0.203125"></stop><stop stop-opacity="1" stop-color="rgb(82.873535%, 4.171753%, 100%)" offset="0.207031"></stop><stop stop-opacity="1" stop-color="rgb(82.414246%, 4.533386%, 100%)" offset="0.210938"></stop><stop stop-opacity="1" stop-color="rgb(81.95343%, 4.893494%, 100%)" offset="0.214844"></stop><stop stop-opacity="1" stop-color="rgb(81.492615%, 5.255127%, 100%)" offset="0.21875"></stop><stop stop-opacity="1" stop-color="rgb(81.031799%, 5.615234%, 100%)" offset="0.222656"></stop><stop stop-opacity="1" stop-color="rgb(80.570984%, 5.976868%, 100%)" offset="0.226563"></stop><stop stop-opacity="1" stop-color="rgb(80.110168%, 6.336975%, 100%)" offset="0.230469"></stop><stop stop-opacity="1" stop-color="rgb(79.650879%, 6.698608%, 100%)" offset="0.234375"></stop><stop stop-opacity="1" stop-color="rgb(79.190063%, 7.060242%, 100%)" offset="0.238281"></stop><stop stop-opacity="1" stop-color="rgb(78.729248%, 7.421875%, 100%)" offset="0.242188"></stop><stop stop-opacity="1" stop-color="rgb(78.268433%, 7.781982%, 100%)" offset="0.246094"></stop><stop stop-opacity="1" stop-color="rgb(77.809143%, 8.143616%, 100%)" offset="0.25"></stop><stop stop-opacity="1" stop-color="rgb(77.348328%, 8.503723%, 100%)" offset="0.253906"></stop><stop stop-opacity="1" stop-color="rgb(76.887512%, 8.865356%, 100%)" offset="0.257812"></stop><stop stop-opacity="1" stop-color="rgb(76.426697%, 9.225464%, 100%)" offset="0.261719"></stop><stop stop-opacity="1" stop-color="rgb(75.965881%, 9.587097%, 100%)" offset="0.265625"></stop><stop stop-opacity="1" stop-color="rgb(75.505066%, 9.947205%, 100%)" offset="0.269531"></stop><stop stop-opacity="1" stop-color="rgb(75.045776%, 10.308838%, 100%)" offset="0.273438"></stop><stop stop-opacity="1" stop-color="rgb(74.584961%, 10.668945%, 100%)" offset="0.277344"></stop><stop stop-opacity="1" stop-color="rgb(74.124146%, 11.030579%, 100%)" offset="0.28125"></stop><stop stop-opacity="1" stop-color="rgb(73.66333%, 11.390686%, 100%)" offset="0.285156"></stop><stop stop-opacity="1" stop-color="rgb(73.204041%, 11.752319%, 100%)" offset="0.289063"></stop><stop stop-opacity="1" stop-color="rgb(72.743225%, 12.112427%, 100%)" offset="0.292969"></stop><stop stop-opacity="1" stop-color="rgb(72.28241%, 12.47406%, 100%)" offset="0.296875"></stop><stop stop-opacity="1" stop-color="rgb(71.821594%, 12.834167%, 100%)" offset="0.300781"></stop><stop stop-opacity="1" stop-color="rgb(71.362305%, 13.195801%, 100%)" offset="0.304688"></stop><stop stop-opacity="1" stop-color="rgb(70.901489%, 13.555908%, 100%)" offset="0.308594"></stop><stop stop-opacity="1" stop-color="rgb(70.440674%, 13.917542%, 100%)" offset="0.3125"></stop><stop stop-opacity="1" stop-color="rgb(69.979858%, 14.277649%, 100%)" offset="0.316406"></stop><stop stop-opacity="1" stop-color="rgb(69.519043%, 14.639282%, 100%)" offset="0.320312"></stop><stop stop-opacity="1" stop-color="rgb(69.058228%, 14.99939%, 100%)" offset="0.324219"></stop><stop stop-opacity="1" stop-color="rgb(68.598938%, 15.361023%, 100%)" offset="0.328125"></stop><stop stop-opacity="1" stop-color="rgb(68.138123%, 15.72113%, 100%)" offset="0.332031"></stop><stop stop-opacity="1" stop-color="rgb(67.677307%, 16.082764%, 100%)" offset="0.335938"></stop><stop stop-opacity="1" stop-color="rgb(67.216492%, 16.442871%, 100%)" offset="0.339844"></stop><stop stop-opacity="1" stop-color="rgb(66.757202%, 16.804504%, 100%)" offset="0.34375"></stop><stop stop-opacity="1" stop-color="rgb(66.296387%, 17.164612%, 100%)" offset="0.347656"></stop><stop stop-opacity="1" stop-color="rgb(65.835571%, 17.526245%, 100%)" offset="0.351563"></stop><stop stop-opacity="1" stop-color="rgb(65.374756%, 17.886353%, 100%)" offset="0.355469"></stop><stop stop-opacity="1" stop-color="rgb(64.91394%, 18.247986%, 100%)" offset="0.359375"></stop><stop stop-opacity="1" stop-color="rgb(64.453125%, 18.608093%, 100%)" offset="0.363281"></stop><stop stop-opacity="1" stop-color="rgb(63.993835%, 18.969727%, 100%)" offset="0.367188"></stop><stop stop-opacity="1" stop-color="rgb(63.53302%, 19.33136%, 100%)" offset="0.371094"></stop><stop stop-opacity="1" stop-color="rgb(63.072205%, 19.692993%, 100%)" offset="0.375"></stop><stop stop-opacity="1" stop-color="rgb(62.611389%, 20.053101%, 100%)" offset="0.378906"></stop><stop stop-opacity="1" stop-color="rgb(62.1521%, 20.414734%, 100%)" offset="0.382813"></stop><stop stop-opacity="1" stop-color="rgb(61.691284%, 20.774841%, 100%)" offset="0.386719"></stop><stop stop-opacity="1" stop-color="rgb(61.230469%, 21.136475%, 100%)" offset="0.390625"></stop><stop stop-opacity="1" stop-color="rgb(60.769653%, 21.496582%, 100%)" offset="0.394531"></stop><stop stop-opacity="1" stop-color="rgb(60.308838%, 21.858215%, 100%)" offset="0.398438"></stop><stop stop-opacity="1" stop-color="rgb(59.848022%, 22.218323%, 100%)" offset="0.402344"></stop><stop stop-opacity="1" stop-color="rgb(59.388733%, 22.579956%, 100%)" offset="0.40625"></stop><stop stop-opacity="1" stop-color="rgb(58.927917%, 22.940063%, 100%)" offset="0.410156"></stop><stop stop-opacity="1" stop-color="rgb(58.467102%, 23.301697%, 100%)" offset="0.414063"></stop><stop stop-opacity="1" stop-color="rgb(58.006287%, 23.661804%, 100%)" offset="0.417969"></stop><stop stop-opacity="1" stop-color="rgb(57.546997%, 24.023438%, 100%)" offset="0.421875"></stop><stop stop-opacity="1" stop-color="rgb(57.086182%, 24.383545%, 100%)" offset="0.425781"></stop><stop stop-opacity="1" stop-color="rgb(56.625366%, 24.745178%, 100%)" offset="0.429688"></stop><stop stop-opacity="1" stop-color="rgb(56.164551%, 25.105286%, 100%)" offset="0.433594"></stop><stop stop-opacity="1" stop-color="rgb(55.705261%, 25.466919%, 100%)" offset="0.4375"></stop><stop stop-opacity="1" stop-color="rgb(55.244446%, 25.827026%, 100%)" offset="0.441406"></stop><stop stop-opacity="1" stop-color="rgb(54.78363%, 26.18866%, 100%)" offset="0.445312"></stop><stop stop-opacity="1" stop-color="rgb(54.322815%, 26.548767%, 100%)" offset="0.449219"></stop><stop stop-opacity="1" stop-color="rgb(53.862%, 26.9104%, 100%)" offset="0.453125"></stop><stop stop-opacity="1" stop-color="rgb(53.401184%, 27.270508%, 100%)" offset="0.457031"></stop><stop stop-opacity="1" stop-color="rgb(52.941895%, 27.632141%, 100%)" offset="0.460938"></stop><stop stop-opacity="1" stop-color="rgb(52.481079%, 27.992249%, 100%)" offset="0.464844"></stop><stop stop-opacity="1" stop-color="rgb(52.020264%, 28.353882%, 100%)" offset="0.46875"></stop><stop stop-opacity="1" stop-color="rgb(51.559448%, 28.713989%, 100%)" offset="0.472656"></stop><stop stop-opacity="1" stop-color="rgb(51.100159%, 29.075623%, 100%)" offset="0.476562"></stop><stop stop-opacity="1" stop-color="rgb(50.639343%, 29.43573%, 100%)" offset="0.480469"></stop><stop stop-opacity="1" stop-color="rgb(50.178528%, 29.797363%, 100%)" offset="0.484375"></stop><stop stop-opacity="1" stop-color="rgb(49.717712%, 30.157471%, 100%)" offset="0.488281"></stop><stop stop-opacity="1" stop-color="rgb(49.256897%, 30.519104%, 100%)" offset="0.492188"></stop><stop stop-opacity="1" stop-color="rgb(48.796082%, 30.879211%, 100%)" offset="0.496094"></stop><stop stop-opacity="1" stop-color="rgb(48.336792%, 31.240845%, 100%)" offset="0.5"></stop><stop stop-opacity="1" stop-color="rgb(47.875977%, 31.602478%, 100%)" offset="0.503906"></stop><stop stop-opacity="1" stop-color="rgb(47.415161%, 31.964111%, 100%)" offset="0.507812"></stop><stop stop-opacity="1" stop-color="rgb(46.954346%, 32.324219%, 100%)" offset="0.511719"></stop><stop stop-opacity="1" stop-color="rgb(46.495056%, 32.685852%, 100%)" offset="0.515625"></stop><stop stop-opacity="1" stop-color="rgb(46.034241%, 33.045959%, 100%)" offset="0.519531"></stop><stop stop-opacity="1" stop-color="rgb(45.573425%, 33.407593%, 100%)" offset="0.523438"></stop><stop stop-opacity="1" stop-color="rgb(45.11261%, 33.7677%, 100%)" offset="0.527344"></stop><stop stop-opacity="1" stop-color="rgb(44.65332%, 34.129333%, 100%)" offset="0.53125"></stop><stop stop-opacity="1" stop-color="rgb(44.192505%, 34.489441%, 100%)" offset="0.535156"></stop><stop stop-opacity="1" stop-color="rgb(43.731689%, 34.851074%, 100%)" offset="0.539062"></stop><stop stop-opacity="1" stop-color="rgb(43.270874%, 35.211182%, 100%)" offset="0.542969"></stop><stop stop-opacity="1" stop-color="rgb(42.810059%, 35.572815%, 100%)" offset="0.546875"></stop><stop stop-opacity="1" stop-color="rgb(42.349243%, 35.932922%, 100%)" offset="0.550781"></stop><stop stop-opacity="1" stop-color="rgb(41.889954%, 36.294556%, 100%)" offset="0.554688"></stop><stop stop-opacity="1" stop-color="rgb(41.429138%, 36.654663%, 100%)" offset="0.558594"></stop><stop stop-opacity="1" stop-color="rgb(40.968323%, 37.016296%, 100%)" offset="0.5625"></stop><stop stop-opacity="1" stop-color="rgb(40.507507%, 37.376404%, 100%)" offset="0.566406"></stop><stop stop-opacity="1" stop-color="rgb(40.048218%, 37.738037%, 100%)" offset="0.570312"></stop><stop stop-opacity="1" stop-color="rgb(39.587402%, 38.098145%, 100%)" offset="0.574219"></stop><stop stop-opacity="1" stop-color="rgb(39.126587%, 38.459778%, 100%)" offset="0.578125"></stop><stop stop-opacity="1" stop-color="rgb(38.665771%, 38.819885%, 100%)" offset="0.582031"></stop><stop stop-opacity="1" stop-color="rgb(38.204956%, 39.181519%, 100%)" offset="0.585938"></stop><stop stop-opacity="1" stop-color="rgb(37.744141%, 39.541626%, 100%)" offset="0.589844"></stop><stop stop-opacity="1" stop-color="rgb(37.284851%, 39.903259%, 100%)" offset="0.59375"></stop><stop stop-opacity="1" stop-color="rgb(36.824036%, 40.263367%, 100%)" offset="0.597656"></stop><stop stop-opacity="1" stop-color="rgb(36.36322%, 40.625%, 100%)" offset="0.601562"></stop><stop stop-opacity="1" stop-color="rgb(35.902405%, 40.985107%, 100%)" offset="0.605469"></stop><stop stop-opacity="1" stop-color="rgb(35.443115%, 41.346741%, 100%)" offset="0.609375"></stop><stop stop-opacity="1" stop-color="rgb(34.9823%, 41.706848%, 100%)" offset="0.613281"></stop><stop stop-opacity="1" stop-color="rgb(34.521484%, 42.068481%, 100%)" offset="0.617188"></stop><stop stop-opacity="1" stop-color="rgb(34.060669%, 42.428589%, 100%)" offset="0.621094"></stop><stop stop-opacity="1" stop-color="rgb(33.599854%, 42.790222%, 100%)" offset="0.625"></stop><stop stop-opacity="1" stop-color="rgb(33.139038%, 43.151855%, 100%)" offset="0.628906"></stop><stop stop-opacity="1" stop-color="rgb(32.679749%, 43.513489%, 100%)" offset="0.632813"></stop><stop stop-opacity="1" stop-color="rgb(32.218933%, 43.873596%, 100%)" offset="0.636719"></stop><stop stop-opacity="1" stop-color="rgb(31.758118%, 44.235229%, 100%)" offset="0.640625"></stop><stop stop-opacity="1" stop-color="rgb(31.297302%, 44.595337%, 100%)" offset="0.644531"></stop><stop stop-opacity="1" stop-color="rgb(30.838013%, 44.95697%, 100%)" offset="0.648438"></stop><stop stop-opacity="1" stop-color="rgb(30.377197%, 45.317078%, 100%)" offset="0.652344"></stop><stop stop-opacity="1" stop-color="rgb(29.916382%, 45.678711%, 100%)" offset="0.65625"></stop><stop stop-opacity="1" stop-color="rgb(29.455566%, 46.038818%, 100%)" offset="0.660156"></stop><stop stop-opacity="1" stop-color="rgb(28.996277%, 46.400452%, 100%)" offset="0.664063"></stop><stop stop-opacity="1" stop-color="rgb(28.535461%, 46.760559%, 100%)" offset="0.667969"></stop><stop stop-opacity="1" stop-color="rgb(28.074646%, 47.122192%, 100%)" offset="0.671875"></stop><stop stop-opacity="1" stop-color="rgb(27.613831%, 47.4823%, 100%)" offset="0.675781"></stop><stop stop-opacity="1" stop-color="rgb(27.153015%, 47.843933%, 100%)" offset="0.679688"></stop><stop stop-opacity="1" stop-color="rgb(26.6922%, 48.204041%, 100%)" offset="0.683594"></stop><stop stop-opacity="1" stop-color="rgb(26.23291%, 48.565674%, 100%)" offset="0.6875"></stop><stop stop-opacity="1" stop-color="rgb(25.772095%, 48.925781%, 100%)" offset="0.691406"></stop><stop stop-opacity="1" stop-color="rgb(25.311279%, 49.287415%, 100%)" offset="0.695313"></stop><stop stop-opacity="1" stop-color="rgb(24.850464%, 49.647522%, 100%)" offset="0.699219"></stop><stop stop-opacity="1" stop-color="rgb(24.391174%, 50.009155%, 100%)" offset="0.703125"></stop><stop stop-opacity="1" stop-color="rgb(23.930359%, 50.369263%, 100%)" offset="0.707031"></stop><stop stop-opacity="1" stop-color="rgb(23.469543%, 50.730896%, 100%)" offset="0.710938"></stop><stop stop-opacity="1" stop-color="rgb(23.008728%, 51.091003%, 100%)" offset="0.714844"></stop><stop stop-opacity="1" stop-color="rgb(22.547913%, 51.452637%, 100%)" offset="0.71875"></stop><stop stop-opacity="1" stop-color="rgb(22.087097%, 51.812744%, 100%)" offset="0.722656"></stop><stop stop-opacity="1" stop-color="rgb(21.627808%, 52.174377%, 100%)" offset="0.726563"></stop><stop stop-opacity="1" stop-color="rgb(21.166992%, 52.534485%, 100%)" offset="0.730469"></stop><stop stop-opacity="1" stop-color="rgb(20.706177%, 52.896118%, 100%)" offset="0.734375"></stop><stop stop-opacity="1" stop-color="rgb(20.245361%, 53.256226%, 100%)" offset="0.738281"></stop><stop stop-opacity="1" stop-color="rgb(19.786072%, 53.617859%, 100%)" offset="0.742188"></stop><stop stop-opacity="1" stop-color="rgb(19.325256%, 53.977966%, 100%)" offset="0.746094"></stop><stop stop-opacity="1" stop-color="rgb(18.864441%, 54.3396%, 100%)" offset="0.75"></stop><stop stop-opacity="1" stop-color="rgb(18.403625%, 54.699707%, 100%)" offset="0.753906"></stop><stop stop-opacity="1" stop-color="rgb(17.944336%, 55.06134%, 100%)" offset="0.757812"></stop><stop stop-opacity="1" stop-color="rgb(17.483521%, 55.422974%, 100%)" offset="0.761719"></stop><stop stop-opacity="1" stop-color="rgb(17.022705%, 55.784607%, 100%)" offset="0.765625"></stop><stop stop-opacity="1" stop-color="rgb(16.56189%, 56.144714%, 100%)" offset="0.769531"></stop><stop stop-opacity="1" stop-color="rgb(16.101074%, 56.506348%, 100%)" offset="0.773438"></stop><stop stop-opacity="1" stop-color="rgb(15.640259%, 56.866455%, 100%)" offset="0.777344"></stop><stop stop-opacity="1" stop-color="rgb(15.180969%, 57.228088%, 100%)" offset="0.78125"></stop><stop stop-opacity="1" stop-color="rgb(14.720154%, 57.588196%, 100%)" offset="0.785156"></stop><stop stop-opacity="1" stop-color="rgb(14.259338%, 57.949829%, 100%)" offset="0.789063"></stop><stop stop-opacity="1" stop-color="rgb(13.798523%, 58.309937%, 100%)" offset="0.792969"></stop><stop stop-opacity="1" stop-color="rgb(13.339233%, 58.67157%, 100%)" offset="0.796875"></stop><stop stop-opacity="1" stop-color="rgb(12.878418%, 59.031677%, 100%)" offset="0.800781"></stop><stop stop-opacity="1" stop-color="rgb(12.417603%, 59.393311%, 100%)" offset="0.804687"></stop><stop stop-opacity="1" stop-color="rgb(11.956787%, 59.753418%, 100%)" offset="0.808594"></stop><stop stop-opacity="1" stop-color="rgb(11.495972%, 60.115051%, 100%)" offset="0.8125"></stop><stop stop-opacity="1" stop-color="rgb(11.035156%, 60.475159%, 100%)" offset="0.816406"></stop><stop stop-opacity="1" stop-color="rgb(10.575867%, 60.836792%, 100%)" offset="0.820312"></stop><stop stop-opacity="1" stop-color="rgb(10.115051%, 61.196899%, 100%)" offset="0.824219"></stop><stop stop-opacity="1" stop-color="rgb(9.654236%, 61.558533%, 100%)" offset="0.828125"></stop><stop stop-opacity="1" stop-color="rgb(9.19342%, 61.91864%, 100%)" offset="0.832031"></stop><stop stop-opacity="1" stop-color="rgb(8.734131%, 62.280273%, 100%)" offset="0.835938"></stop><stop stop-opacity="1" stop-color="rgb(8.465576%, 62.489319%, 100%)" offset="0.839844"></stop><stop stop-opacity="1" stop-color="rgb(8.198547%, 62.69989%, 100%)" offset="0.84375"></stop><stop stop-opacity="1" stop-color="rgb(8.198547%, 62.69989%, 100%)" offset="0.875"></stop><stop stop-opacity="1" stop-color="rgb(8.198547%, 62.69989%, 100%)" offset="1"></stop></linearGradient></defs><g clip-path="url(#8424e1146c)"><g clip-path="url(#954b754f3a)"><path fill="url(#043f19b312)" d="M 2.15625 11.261719 L 2.15625 35.410156 L 29.339844 35.410156 L 29.339844 11.261719 Z M 2.15625 11.261719 " fill-rule="nonzero"></path></g></g><g fill="#ffc1b2" fill-opacity="0.302"><g transform="translate(34.02179, 27.442191)"><g><path d="M 4.726562 -7.1875 C 4.613281 -7.074219 4.472656 -7.027344 4.324219 -7.027344 L 3.648438 -7.027344 C 3.144531 -7.027344 2.691406 -6.929688 2.277344 -6.746094 C 1.863281 -6.558594 1.515625 -6.285156 1.210938 -5.925781 C 0.949219 -5.609375 0.75 -5.257812 0.613281 -4.859375 C 0.476562 -4.460938 0.414062 -4.046875 0.414062 -3.605469 C 0.414062 -3.179688 0.480469 -2.761719 0.621094 -2.355469 C 0.757812 -1.941406 0.957031 -1.574219 1.230469 -1.257812 C 1.507812 -0.9375 1.84375 -0.675781 2.242188 -0.480469 C 2.644531 -0.28125 3.109375 -0.1875 3.648438 -0.1875 L 4.324219 -0.1875 C 4.472656 -0.1875 4.613281 -0.128906 4.726562 -0.0273438 C 4.761719 0.0078125 4.804688 0.015625 4.84375 -0.0078125 C 4.886719 -0.0195312 4.90625 -0.0546875 4.90625 -0.109375 L 4.90625 -1.644531 C 4.90625 -1.6875 4.886719 -1.71875 4.84375 -1.742188 C 4.804688 -1.753906 4.769531 -1.75 4.742188 -1.71875 C 4.613281 -1.605469 4.46875 -1.546875 4.308594 -1.546875 L 3.648438 -1.546875 C 3.277344 -1.546875 2.964844 -1.617188 2.726562 -1.761719 C 2.484375 -1.898438 2.292969 -2.078125 2.152344 -2.292969 C 2.015625 -2.5 1.914062 -2.726562 1.859375 -2.960938 C 1.804688 -3.195312 1.777344 -3.414062 1.777344 -3.605469 C 1.777344 -3.882812 1.816406 -4.144531 1.898438 -4.398438 C 1.980469 -4.644531 2.105469 -4.867188 2.257812 -5.050781 C 2.59375 -5.457031 3.054688 -5.664062 3.648438 -5.664062 L 4.308594 -5.664062 C 4.46875 -5.664062 4.613281 -5.601562 4.742188 -5.492188 C 4.769531 -5.457031 4.804688 -5.449219 4.84375 -5.472656 C 4.886719 -5.484375 4.90625 -5.519531 4.90625 -5.566406 L 4.90625 -7.109375 C 4.90625 -7.152344 4.886719 -7.1875 4.84375 -7.207031 C 4.804688 -7.21875 4.761719 -7.214844 4.726562 -7.1875 Z M 4.726562 -7.1875 "></path></g></g></g><g fill="#ffc1b2" fill-opacity="0.302"><g transform="translate(39.761994, 27.442191)"><g><path d="M 5.003906 -1.519531 L 4.921875 -1.453125 C 4.84375 -1.382812 4.761719 -1.355469 4.671875 -1.355469 L 2.539062 -1.355469 C 2.492188 -1.355469 2.449219 -1.371094 2.421875 -1.398438 C 2.386719 -1.425781 2.375 -1.464844 2.375 -1.519531 L 2.375 -6.230469 C 2.375 -6.386719 2.429688 -6.53125 2.539062 -6.65625 L 2.546875 -6.664062 C 2.566406 -6.695312 2.566406 -6.730469 2.554688 -6.773438 C 2.53125 -6.808594 2.5 -6.828125 2.457031 -6.828125 L 0.9375 -6.828125 C 0.886719 -6.828125 0.851562 -6.808594 0.839844 -6.773438 C 0.820312 -6.730469 0.820312 -6.695312 0.847656 -6.664062 C 0.957031 -6.539062 1.011719 -6.394531 1.011719 -6.234375 L 1.011719 -0.152344 C 1.011719 -0.101562 1.027344 -0.0625 1.058594 -0.0351562 C 1.085938 0 1.128906 0.015625 1.175781 0.015625 L 4.671875 0.015625 C 4.761719 0.015625 4.84375 0.046875 4.921875 0.109375 L 5.003906 0.179688 C 5.039062 0.207031 5.074219 0.207031 5.113281 0.1875 C 5.148438 0.171875 5.167969 0.136719 5.167969 0.0898438 L 5.167969 -1.429688 C 5.167969 -1.472656 5.148438 -1.507812 5.113281 -1.527344 C 5.074219 -1.542969 5.039062 -1.542969 5.003906 -1.519531 Z M 5.003906 -1.519531 "></path></g></g></g><g fill="#ffc1b2" fill-opacity="0.302"><g transform="translate(45.35078, 27.442191)"><g><path d="M 5.203125 -5.769531 C 4.941406 -6.113281 4.632812 -6.375 4.289062 -6.558594 C 3.9375 -6.738281 3.570312 -6.835938 3.1875 -6.835938 C 2.800781 -6.835938 2.429688 -6.738281 2.078125 -6.558594 C 1.726562 -6.375 1.425781 -6.113281 1.164062 -5.769531 C 0.914062 -5.445312 0.730469 -5.078125 0.605469 -4.679688 C 0.476562 -4.28125 0.414062 -3.855469 0.414062 -3.414062 C 0.414062 -2.972656 0.476562 -2.546875 0.605469 -2.148438 C 0.730469 -1.742188 0.914062 -1.382812 1.164062 -1.066406 C 1.425781 -0.722656 1.726562 -0.453125 2.078125 -0.273438 C 2.429688 -0.0898438 2.800781 0 3.1875 0 C 3.570312 0 3.9375 -0.0898438 4.289062 -0.273438 C 4.632812 -0.453125 4.941406 -0.722656 5.203125 -1.066406 C 5.449219 -1.382812 5.636719 -1.742188 5.769531 -2.148438 C 5.890625 -2.546875 5.960938 -2.972656 5.960938 -3.414062 C 5.960938 -3.855469 5.890625 -4.28125 5.769531 -4.679688 C 5.636719 -5.078125 5.449219 -5.445312 5.203125 -5.769531 Z M 3.1875 -1.363281 C 2.992188 -1.363281 2.808594 -1.417969 2.644531 -1.527344 C 2.472656 -1.636719 2.320312 -1.78125 2.195312 -1.96875 C 2.066406 -2.152344 1.960938 -2.375 1.886719 -2.621094 C 1.808594 -2.871094 1.777344 -3.132812 1.777344 -3.414062 C 1.777344 -3.6875 1.808594 -3.957031 1.886719 -4.207031 C 1.960938 -4.453125 2.066406 -4.667969 2.195312 -4.859375 C 2.320312 -5.046875 2.472656 -5.195312 2.644531 -5.304688 C 2.808594 -5.417969 2.992188 -5.472656 3.1875 -5.472656 C 3.378906 -5.472656 3.558594 -5.417969 3.730469 -5.304688 C 3.894531 -5.195312 4.046875 -5.046875 4.171875 -4.859375 C 4.292969 -4.667969 4.398438 -4.453125 4.472656 -4.207031 C 4.550781 -3.957031 4.589844 -3.6875 4.589844 -3.414062 C 4.589844 -3.132812 4.550781 -2.871094 4.472656 -2.621094 C 4.398438 -2.375 4.292969 -2.152344 4.171875 -1.96875 C 4.046875 -1.78125 3.894531 -1.636719 3.730469 -1.527344 C 3.558594 -1.417969 3.378906 -1.363281 3.1875 -1.363281 Z M 3.1875 -1.363281 "></path></g></g></g><g fill="#ffc1b2" fill-opacity="0.302"><g transform="translate(51.724199, 27.442191)"><g><path d="M 5.898438 -6.835938 L 4.378906 -6.835938 C 4.328125 -6.835938 4.292969 -6.8125 4.28125 -6.78125 C 4.261719 -6.738281 4.261719 -6.703125 4.289062 -6.667969 C 4.398438 -6.539062 4.460938 -6.394531 4.460938 -6.234375 L 4.460938 -2.222656 C 4.460938 -2.007812 4.40625 -1.84375 4.308594 -1.734375 C 4.210938 -1.617188 4.101562 -1.535156 3.976562 -1.480469 C 3.855469 -1.425781 3.738281 -1.390625 3.628906 -1.375 C 3.515625 -1.363281 3.449219 -1.363281 3.421875 -1.363281 C 3.394531 -1.363281 3.316406 -1.363281 3.207031 -1.375 C 3.097656 -1.390625 2.980469 -1.425781 2.855469 -1.480469 C 2.734375 -1.535156 2.621094 -1.617188 2.527344 -1.734375 C 2.429688 -1.84375 2.382812 -2.007812 2.382812 -2.222656 L 2.382812 -6.234375 C 2.382812 -6.402344 2.4375 -6.546875 2.546875 -6.667969 C 2.566406 -6.703125 2.566406 -6.738281 2.554688 -6.78125 C 2.53125 -6.8125 2.5 -6.835938 2.457031 -6.835938 L 0.9375 -6.835938 C 0.886719 -6.835938 0.851562 -6.8125 0.839844 -6.78125 C 0.820312 -6.738281 0.820312 -6.703125 0.847656 -6.667969 C 0.957031 -6.546875 1.011719 -6.402344 1.011719 -6.234375 L 1.011719 -2.222656 C 1.011719 -1.878906 1.082031 -1.5625 1.21875 -1.273438 C 1.355469 -0.984375 1.546875 -0.738281 1.808594 -0.53125 C 2.03125 -0.351562 2.277344 -0.21875 2.554688 -0.128906 C 2.828125 -0.0351562 3.117188 0.0078125 3.421875 0.0078125 C 3.722656 0.0078125 4.003906 -0.0351562 4.28125 -0.128906 C 4.554688 -0.21875 4.804688 -0.351562 5.023438 -0.53125 C 5.285156 -0.738281 5.480469 -0.984375 5.617188 -1.273438 C 5.753906 -1.5625 5.824219 -1.878906 5.824219 -2.222656 L 5.824219 -6.234375 C 5.824219 -6.386719 5.878906 -6.53125 5.988281 -6.667969 C 6.015625 -6.703125 6.015625 -6.738281 5.996094 -6.78125 C 5.972656 -6.8125 5.941406 -6.835938 5.898438 -6.835938 Z M 5.898438 -6.835938 "></path></g></g></g><g fill="#ffc1b2" fill-opacity="0.302"><g transform="translate(58.565641, 27.442191)"><g><path d="M 5.300781 -5.625 C 5.078125 -6.015625 4.8125 -6.316406 4.496094 -6.523438 C 4.179688 -6.730469 3.820312 -6.839844 3.433594 -6.839844 L 0.929688 -6.839844 C 0.882812 -6.839844 0.847656 -6.820312 0.832031 -6.78125 C 0.8125 -6.738281 0.820312 -6.695312 0.851562 -6.667969 C 0.976562 -6.53125 1.046875 -6.367188 1.046875 -6.179688 L 1.046875 -0.652344 C 1.046875 -0.46875 0.976562 -0.304688 0.851562 -0.164062 C 0.820312 -0.128906 0.8125 -0.0976562 0.832031 -0.0546875 C 0.847656 -0.015625 0.882812 0 0.929688 0 L 3.433594 0 C 3.820312 0 4.179688 -0.101562 4.496094 -0.308594 C 4.8125 -0.515625 5.078125 -0.8125 5.300781 -1.203125 C 5.457031 -1.5 5.582031 -1.835938 5.671875 -2.214844 C 5.761719 -2.59375 5.808594 -2.992188 5.808594 -3.414062 C 5.808594 -3.828125 5.761719 -4.226562 5.671875 -4.605469 C 5.582031 -4.984375 5.457031 -5.320312 5.300781 -5.625 Z M 4.101562 -1.863281 C 4.035156 -1.742188 3.964844 -1.644531 3.894531 -1.574219 C 3.828125 -1.507812 3.757812 -1.453125 3.703125 -1.425781 C 3.640625 -1.390625 3.585938 -1.371094 3.539062 -1.371094 C 3.488281 -1.363281 3.457031 -1.363281 3.433594 -1.363281 L 2.664062 -1.363281 C 2.59375 -1.363281 2.53125 -1.382812 2.484375 -1.4375 C 2.429688 -1.488281 2.410156 -1.546875 2.410156 -1.617188 L 2.410156 -5.132812 C 2.410156 -5.222656 2.4375 -5.300781 2.503906 -5.367188 C 2.574219 -5.4375 2.65625 -5.472656 2.753906 -5.472656 L 3.433594 -5.472656 C 3.585938 -5.472656 3.730469 -5.410156 3.855469 -5.292969 C 3.976562 -5.167969 4.089844 -5.011719 4.179688 -4.816406 C 4.261719 -4.625 4.328125 -4.40625 4.378906 -4.15625 C 4.417969 -3.910156 4.445312 -3.660156 4.445312 -3.414062 C 4.445312 -3.109375 4.410156 -2.820312 4.355469 -2.554688 C 4.292969 -2.285156 4.210938 -2.058594 4.101562 -1.863281 Z M 4.101562 -1.863281 "></path></g></g></g><g fill="#ffc1b2" fill-opacity="0.302"><g transform="translate(64.925292, 27.442191)"><g><path d="M 5.011719 -6.890625 C 4.894531 -6.78125 4.757812 -6.730469 4.605469 -6.730469 L 0.9375 -6.730469 C 0.886719 -6.730469 0.851562 -6.710938 0.839844 -6.667969 C 0.820312 -6.628906 0.820312 -6.59375 0.847656 -6.558594 L 0.867188 -6.539062 C 0.976562 -6.414062 1.03125 -6.269531 1.03125 -6.105469 L 1.03125 -0.515625 C 1.03125 -0.433594 1.019531 -0.359375 0.992188 -0.28125 C 0.964844 -0.207031 0.921875 -0.136719 0.867188 -0.0820312 L 0.847656 -0.0625 C 0.820312 -0.0195312 0.820312 0.015625 0.839844 0.0546875 C 0.851562 0.0976562 0.886719 0.109375 0.9375 0.109375 L 4.605469 0.109375 C 4.757812 0.109375 4.894531 0.164062 5.011719 0.269531 C 5.046875 0.304688 5.085938 0.308594 5.128906 0.289062 C 5.167969 0.273438 5.195312 0.242188 5.195312 0.1875 L 5.195312 -1.347656 C 5.195312 -1.390625 5.175781 -1.425781 5.132812 -1.445312 C 5.09375 -1.460938 5.050781 -1.453125 5.023438 -1.425781 C 4.902344 -1.308594 4.757812 -1.253906 4.589844 -1.253906 L 2.566406 -1.253906 C 2.519531 -1.253906 2.476562 -1.265625 2.445312 -1.300781 C 2.410156 -1.328125 2.394531 -1.371094 2.394531 -1.425781 L 2.394531 -2.457031 C 2.394531 -2.503906 2.410156 -2.546875 2.445312 -2.582031 C 2.476562 -2.609375 2.519531 -2.628906 2.566406 -2.628906 L 3.171875 -2.628906 C 3.339844 -2.628906 3.484375 -2.566406 3.605469 -2.457031 C 3.640625 -2.429688 3.675781 -2.429688 3.714844 -2.449219 C 3.757812 -2.472656 3.777344 -2.503906 3.777344 -2.546875 L 3.777344 -4.074219 C 3.777344 -4.117188 3.757812 -4.144531 3.714844 -4.164062 C 3.675781 -4.183594 3.640625 -4.183594 3.605469 -4.164062 C 3.484375 -4.046875 3.339844 -3.992188 3.171875 -3.992188 L 2.566406 -3.992188 C 2.519531 -3.992188 2.476562 -4.003906 2.445312 -4.039062 C 2.410156 -4.066406 2.394531 -4.109375 2.394531 -4.164062 L 2.394531 -5.195312 C 2.394531 -5.246094 2.410156 -5.285156 2.445312 -5.320312 C 2.476562 -5.347656 2.519531 -5.367188 2.566406 -5.367188 L 4.589844 -5.367188 C 4.757812 -5.367188 4.902344 -5.304688 5.023438 -5.195312 C 5.050781 -5.160156 5.09375 -5.15625 5.132812 -5.175781 C 5.175781 -5.191406 5.195312 -5.222656 5.195312 -5.273438 L 5.195312 -6.8125 C 5.195312 -6.855469 5.167969 -6.890625 5.128906 -6.910156 C 5.085938 -6.925781 5.046875 -6.917969 5.011719 -6.890625 Z M 5.011719 -6.890625 "></path></g></g></g><g fill="#ffc1b2" fill-opacity="0.302"><g transform="translate(70.947691, 27.442191)"><g><path d="M 5.628906 -0.171875 L 5.527344 -0.253906 C 5.417969 -0.34375 5.320312 -0.453125 5.246094 -0.578125 L 4.390625 -1.941406 C 4.363281 -1.980469 4.351562 -2.03125 4.363281 -2.085938 C 4.378906 -2.132812 4.40625 -2.175781 4.453125 -2.210938 C 4.625 -2.332031 4.777344 -2.472656 4.902344 -2.628906 C 5.085938 -2.855469 5.230469 -3.117188 5.328125 -3.40625 C 5.421875 -3.695312 5.480469 -4 5.480469 -4.316406 C 5.480469 -4.632812 5.421875 -4.941406 5.328125 -5.230469 C 5.230469 -5.519531 5.085938 -5.78125 4.902344 -6.015625 C 4.679688 -6.277344 4.410156 -6.484375 4.109375 -6.628906 C 3.800781 -6.765625 3.460938 -6.839844 3.105469 -6.839844 L 0.929688 -6.839844 C 0.882812 -6.839844 0.847656 -6.820312 0.832031 -6.78125 C 0.8125 -6.738281 0.820312 -6.703125 0.851562 -6.667969 C 0.964844 -6.546875 1.027344 -6.402344 1.027344 -6.234375 L 1.027344 -0.59375 C 1.027344 -0.433594 0.96875 -0.296875 0.867188 -0.179688 C 0.824219 -0.136719 0.820312 -0.101562 0.839844 -0.0625 C 0.851562 -0.0195312 0.886719 0 0.941406 0 L 2.484375 0 C 2.527344 0 2.558594 -0.015625 2.574219 -0.0546875 C 2.589844 -0.0976562 2.589844 -0.128906 2.558594 -0.171875 C 2.445312 -0.296875 2.386719 -0.433594 2.386719 -0.597656 L 2.386719 -1.605469 C 2.386719 -1.660156 2.402344 -1.707031 2.445312 -1.75 C 2.484375 -1.789062 2.53125 -1.808594 2.589844 -1.808594 L 2.753906 -1.808594 C 2.820312 -1.808594 2.882812 -1.777344 2.925781 -1.714844 L 3.773438 -0.351562 C 3.804688 -0.289062 3.800781 -0.234375 3.757812 -0.179688 L 3.75 -0.171875 C 3.722656 -0.128906 3.722656 -0.0976562 3.746094 -0.0546875 C 3.757812 -0.015625 3.792969 0 3.839844 0 L 5.582031 0 C 5.628906 0 5.65625 -0.0195312 5.671875 -0.0625 C 5.683594 -0.101562 5.671875 -0.136719 5.628906 -0.171875 Z M 3.847656 -3.496094 C 3.675781 -3.277344 3.425781 -3.171875 3.105469 -3.171875 L 2.589844 -3.171875 C 2.53125 -3.171875 2.484375 -3.1875 2.445312 -3.226562 C 2.402344 -3.269531 2.386719 -3.316406 2.386719 -3.371094 L 2.386719 -5.273438 C 2.386719 -5.328125 2.402344 -5.375 2.445312 -5.417969 C 2.484375 -5.457031 2.53125 -5.480469 2.589844 -5.480469 L 3.105469 -5.480469 C 3.351562 -5.480469 3.539062 -5.421875 3.675781 -5.3125 C 3.8125 -5.203125 3.910156 -5.078125 3.976562 -4.941406 C 4.039062 -4.804688 4.082031 -4.671875 4.09375 -4.550781 C 4.109375 -4.425781 4.117188 -4.34375 4.117188 -4.316406 C 4.117188 -4.148438 4.089844 -4 4.046875 -3.859375 C 4 -3.722656 3.929688 -3.601562 3.847656 -3.496094 Z M 3.847656 -3.496094 "></path></g></g></g><g fill="#ffc1b2" fill-opacity="0.302"><g transform="translate(77.451882, 27.442191)"><g><path d="M 2.382812 -0.605469 L 2.382812 -6.234375 C 2.382812 -6.402344 2.4375 -6.546875 2.546875 -6.667969 C 2.566406 -6.703125 2.566406 -6.738281 2.554688 -6.78125 C 2.53125 -6.820312 2.5 -6.839844 2.457031 -6.839844 L 0.9375 -6.839844 C 0.886719 -6.839844 0.851562 -6.820312 0.839844 -6.78125 C 0.820312 -6.738281 0.820312 -6.703125 0.847656 -6.667969 C 0.957031 -6.546875 1.019531 -6.402344 1.019531 -6.234375 L 1.019531 -0.605469 C 1.019531 -0.441406 0.957031 -0.296875 0.847656 -0.171875 C 0.820312 -0.128906 0.820312 -0.0976562 0.839844 -0.0546875 C 0.851562 -0.015625 0.886719 0 0.9375 0 L 2.457031 0 C 2.5 0 2.53125 -0.015625 2.554688 -0.0546875 C 2.566406 -0.0976562 2.566406 -0.128906 2.546875 -0.171875 C 2.492188 -0.226562 2.449219 -0.296875 2.421875 -0.371094 C 2.394531 -0.449219 2.382812 -0.523438 2.382812 -0.605469 Z M 2.382812 -0.605469 "></path></g></g></g><g fill="#ffc1b2" fill-opacity="0.302"><g transform="translate(80.851955, 27.442191)"><g><path d="M 6.214844 -0.191406 C 6.035156 -0.332031 5.890625 -0.496094 5.789062 -0.703125 L 4.523438 -3.117188 C 4.417969 -3.316406 4.417969 -3.515625 4.523438 -3.722656 L 5.789062 -6.140625 C 5.890625 -6.339844 6.035156 -6.511719 6.214844 -6.648438 C 6.261719 -6.691406 6.277344 -6.730469 6.25 -6.78125 C 6.230469 -6.820312 6.195312 -6.839844 6.152344 -6.839844 L 4.453125 -6.839844 C 4.40625 -6.839844 4.371094 -6.820312 4.355469 -6.78125 C 4.335938 -6.738281 4.335938 -6.703125 4.363281 -6.667969 C 4.433594 -6.59375 4.4375 -6.511719 4.398438 -6.421875 L 3.53125 -4.761719 C 3.488281 -4.679688 3.421875 -4.644531 3.339844 -4.644531 C 3.25 -4.644531 3.1875 -4.679688 3.144531 -4.761719 L 2.277344 -6.429688 C 2.25 -6.460938 2.242188 -6.503906 2.25 -6.550781 C 2.257812 -6.59375 2.277344 -6.636719 2.3125 -6.667969 C 2.339844 -6.703125 2.339844 -6.738281 2.328125 -6.78125 C 2.3125 -6.820312 2.277344 -6.839844 2.238281 -6.839844 L 0.523438 -6.839844 C 0.476562 -6.839844 0.441406 -6.820312 0.425781 -6.78125 C 0.414062 -6.753906 0.40625 -6.730469 0.414062 -6.710938 C 0.417969 -6.683594 0.433594 -6.664062 0.453125 -6.648438 L 0.460938 -6.648438 C 0.640625 -6.511719 0.777344 -6.339844 0.886719 -6.140625 L 2.152344 -3.722656 C 2.25 -3.515625 2.25 -3.316406 2.152344 -3.117188 L 0.886719 -0.703125 C 0.777344 -0.496094 0.640625 -0.332031 0.460938 -0.191406 L 0.453125 -0.191406 C 0.433594 -0.171875 0.417969 -0.152344 0.414062 -0.128906 C 0.40625 -0.101562 0.414062 -0.0820312 0.425781 -0.0625 C 0.441406 -0.0195312 0.476562 0 0.523438 0 L 2.238281 0 C 2.277344 0 2.3125 -0.015625 2.328125 -0.0546875 C 2.339844 -0.0976562 2.339844 -0.128906 2.3125 -0.171875 C 2.277344 -0.199219 2.257812 -0.242188 2.25 -0.289062 C 2.242188 -0.332031 2.25 -0.371094 2.277344 -0.414062 L 3.144531 -2.078125 C 3.1875 -2.152344 3.25 -2.195312 3.339844 -2.195312 C 3.421875 -2.195312 3.488281 -2.152344 3.53125 -2.078125 L 4.398438 -0.417969 C 4.4375 -0.324219 4.433594 -0.242188 4.363281 -0.171875 C 4.335938 -0.128906 4.335938 -0.0976562 4.355469 -0.0546875 C 4.371094 -0.015625 4.40625 0 4.453125 0 L 6.152344 0 C 6.195312 0 6.230469 -0.0195312 6.25 -0.0625 C 6.277344 -0.101562 6.261719 -0.152344 6.214844 -0.191406 Z M 6.214844 -0.191406 "></path></g></g></g><g fill="#ffc1b2" fill-opacity="0.502"><g transform="translate(34.203937, 27.519508)"><g><path d="M 4.726562 -7.1875 C 4.613281 -7.074219 4.472656 -7.027344 4.324219 -7.027344 L 3.648438 -7.027344 C 3.144531 -7.027344 2.691406 -6.929688 2.277344 -6.746094 C 1.863281 -6.558594 1.515625 -6.285156 1.210938 -5.925781 C 0.949219 -5.609375 0.75 -5.257812 0.613281 -4.859375 C 0.476562 -4.460938 0.414062 -4.046875 0.414062 -3.605469 C 0.414062 -3.179688 0.480469 -2.761719 0.621094 -2.355469 C 0.757812 -1.941406 0.957031 -1.574219 1.230469 -1.257812 C 1.507812 -0.9375 1.84375 -0.675781 2.242188 -0.480469 C 2.644531 -0.28125 3.109375 -0.1875 3.648438 -0.1875 L 4.324219 -0.1875 C 4.472656 -0.1875 4.613281 -0.128906 4.726562 -0.0273438 C 4.761719 0.0078125 4.804688 0.015625 4.84375 -0.0078125 C 4.886719 -0.0195312 4.90625 -0.0546875 4.90625 -0.109375 L 4.90625 -1.644531 C 4.90625 -1.6875 4.886719 -1.71875 4.84375 -1.742188 C 4.804688 -1.753906 4.769531 -1.75 4.742188 -1.71875 C 4.613281 -1.605469 4.46875 -1.546875 4.308594 -1.546875 L 3.648438 -1.546875 C 3.277344 -1.546875 2.964844 -1.617188 2.726562 -1.761719 C 2.484375 -1.898438 2.292969 -2.078125 2.152344 -2.292969 C 2.015625 -2.5 1.914062 -2.726562 1.859375 -2.960938 C 1.804688 -3.195312 1.777344 -3.414062 1.777344 -3.605469 C 1.777344 -3.882812 1.816406 -4.144531 1.898438 -4.398438 C 1.980469 -4.644531 2.105469 -4.867188 2.257812 -5.050781 C 2.59375 -5.457031 3.054688 -5.664062 3.648438 -5.664062 L 4.308594 -5.664062 C 4.46875 -5.664062 4.613281 -5.601562 4.742188 -5.492188 C 4.769531 -5.457031 4.804688 -5.449219 4.84375 -5.472656 C 4.886719 -5.484375 4.90625 -5.519531 4.90625 -5.566406 L 4.90625 -7.109375 C 4.90625 -7.152344 4.886719 -7.1875 4.84375 -7.207031 C 4.804688 -7.21875 4.761719 -7.214844 4.726562 -7.1875 Z M 4.726562 -7.1875 "></path></g></g></g><g fill="#ffc1b2" fill-opacity="0.502"><g transform="translate(39.944142, 27.519508)"><g><path d="M 5.003906 -1.519531 L 4.921875 -1.453125 C 4.84375 -1.382812 4.761719 -1.355469 4.671875 -1.355469 L 2.539062 -1.355469 C 2.492188 -1.355469 2.449219 -1.371094 2.421875 -1.398438 C 2.386719 -1.425781 2.375 -1.464844 2.375 -1.519531 L 2.375 -6.230469 C 2.375 -6.386719 2.429688 -6.53125 2.539062 -6.65625 L 2.546875 -6.664062 C 2.566406 -6.695312 2.566406 -6.730469 2.554688 -6.773438 C 2.53125 -6.808594 2.5 -6.828125 2.457031 -6.828125 L 0.9375 -6.828125 C 0.886719 -6.828125 0.851562 -6.808594 0.839844 -6.773438 C 0.820312 -6.730469 0.820312 -6.695312 0.847656 -6.664062 C 0.957031 -6.539062 1.011719 -6.394531 1.011719 -6.234375 L 1.011719 -0.152344 C 1.011719 -0.101562 1.027344 -0.0625 1.058594 -0.0351562 C 1.085938 0 1.128906 0.015625 1.175781 0.015625 L 4.671875 0.015625 C 4.761719 0.015625 4.84375 0.046875 4.921875 0.109375 L 5.003906 0.179688 C 5.039062 0.207031 5.074219 0.207031 5.113281 0.1875 C 5.148438 0.171875 5.167969 0.136719 5.167969 0.0898438 L 5.167969 -1.429688 C 5.167969 -1.472656 5.148438 -1.507812 5.113281 -1.527344 C 5.074219 -1.542969 5.039062 -1.542969 5.003906 -1.519531 Z M 5.003906 -1.519531 "></path></g></g></g><g fill="#ffc1b2" fill-opacity="0.502"><g transform="translate(45.532927, 27.519508)"><g><path d="M 5.203125 -5.769531 C 4.941406 -6.113281 4.632812 -6.375 4.289062 -6.558594 C 3.9375 -6.738281 3.570312 -6.835938 3.1875 -6.835938 C 2.800781 -6.835938 2.429688 -6.738281 2.078125 -6.558594 C 1.726562 -6.375 1.425781 -6.113281 1.164062 -5.769531 C 0.914062 -5.445312 0.730469 -5.078125 0.605469 -4.679688 C 0.476562 -4.28125 0.414062 -3.855469 0.414062 -3.414062 C 0.414062 -2.972656 0.476562 -2.546875 0.605469 -2.148438 C 0.730469 -1.742188 0.914062 -1.382812 1.164062 -1.066406 C 1.425781 -0.722656 1.726562 -0.453125 2.078125 -0.273438 C 2.429688 -0.0898438 2.800781 0 3.1875 0 C 3.570312 0 3.9375 -0.0898438 4.289062 -0.273438 C 4.632812 -0.453125 4.941406 -0.722656 5.203125 -1.066406 C 5.449219 -1.382812 5.636719 -1.742188 5.769531 -2.148438 C 5.890625 -2.546875 5.960938 -2.972656 5.960938 -3.414062 C 5.960938 -3.855469 5.890625 -4.28125 5.769531 -4.679688 C 5.636719 -5.078125 5.449219 -5.445312 5.203125 -5.769531 Z M 3.1875 -1.363281 C 2.992188 -1.363281 2.808594 -1.417969 2.644531 -1.527344 C 2.472656 -1.636719 2.320312 -1.78125 2.195312 -1.96875 C 2.066406 -2.152344 1.960938 -2.375 1.886719 -2.621094 C 1.808594 -2.871094 1.777344 -3.132812 1.777344 -3.414062 C 1.777344 -3.6875 1.808594 -3.957031 1.886719 -4.207031 C 1.960938 -4.453125 2.066406 -4.667969 2.195312 -4.859375 C 2.320312 -5.046875 2.472656 -5.195312 2.644531 -5.304688 C 2.808594 -5.417969 2.992188 -5.472656 3.1875 -5.472656 C 3.378906 -5.472656 3.558594 -5.417969 3.730469 -5.304688 C 3.894531 -5.195312 4.046875 -5.046875 4.171875 -4.859375 C 4.292969 -4.667969 4.398438 -4.453125 4.472656 -4.207031 C 4.550781 -3.957031 4.589844 -3.6875 4.589844 -3.414062 C 4.589844 -3.132812 4.550781 -2.871094 4.472656 -2.621094 C 4.398438 -2.375 4.292969 -2.152344 4.171875 -1.96875 C 4.046875 -1.78125 3.894531 -1.636719 3.730469 -1.527344 C 3.558594 -1.417969 3.378906 -1.363281 3.1875 -1.363281 Z M 3.1875 -1.363281 "></path></g></g></g><g fill="#ffc1b2" fill-opacity="0.502"><g transform="translate(51.906346, 27.519508)"><g><path d="M 5.898438 -6.835938 L 4.378906 -6.835938 C 4.328125 -6.835938 4.292969 -6.8125 4.28125 -6.78125 C 4.261719 -6.738281 4.261719 -6.703125 4.289062 -6.667969 C 4.398438 -6.539062 4.460938 -6.394531 4.460938 -6.234375 L 4.460938 -2.222656 C 4.460938 -2.007812 4.40625 -1.84375 4.308594 -1.734375 C 4.210938 -1.617188 4.101562 -1.535156 3.976562 -1.480469 C 3.855469 -1.425781 3.738281 -1.390625 3.628906 -1.375 C 3.515625 -1.363281 3.449219 -1.363281 3.421875 -1.363281 C 3.394531 -1.363281 3.316406 -1.363281 3.207031 -1.375 C 3.097656 -1.390625 2.980469 -1.425781 2.855469 -1.480469 C 2.734375 -1.535156 2.621094 -1.617188 2.527344 -1.734375 C 2.429688 -1.84375 2.382812 -2.007812 2.382812 -2.222656 L 2.382812 -6.234375 C 2.382812 -6.402344 2.4375 -6.546875 2.546875 -6.667969 C 2.566406 -6.703125 2.566406 -6.738281 2.554688 -6.78125 C 2.53125 -6.8125 2.5 -6.835938 2.457031 -6.835938 L 0.9375 -6.835938 C 0.886719 -6.835938 0.851562 -6.8125 0.839844 -6.78125 C 0.820312 -6.738281 0.820312 -6.703125 0.847656 -6.667969 C 0.957031 -6.546875 1.011719 -6.402344 1.011719 -6.234375 L 1.011719 -2.222656 C 1.011719 -1.878906 1.082031 -1.5625 1.21875 -1.273438 C 1.355469 -0.984375 1.546875 -0.738281 1.808594 -0.53125 C 2.03125 -0.351562 2.277344 -0.21875 2.554688 -0.128906 C 2.828125 -0.0351562 3.117188 0.0078125 3.421875 0.0078125 C 3.722656 0.0078125 4.003906 -0.0351562 4.28125 -0.128906 C 4.554688 -0.21875 4.804688 -0.351562 5.023438 -0.53125 C 5.285156 -0.738281 5.480469 -0.984375 5.617188 -1.273438 C 5.753906 -1.5625 5.824219 -1.878906 5.824219 -2.222656 L 5.824219 -6.234375 C 5.824219 -6.386719 5.878906 -6.53125 5.988281 -6.667969 C 6.015625 -6.703125 6.015625 -6.738281 5.996094 -6.78125 C 5.972656 -6.8125 5.941406 -6.835938 5.898438 -6.835938 Z M 5.898438 -6.835938 "></path></g></g></g><g fill="#ffc1b2" fill-opacity="0.502"><g transform="translate(58.747789, 27.519508)"><g><path d="M 5.300781 -5.625 C 5.078125 -6.015625 4.8125 -6.316406 4.496094 -6.523438 C 4.179688 -6.730469 3.820312 -6.839844 3.433594 -6.839844 L 0.929688 -6.839844 C 0.882812 -6.839844 0.847656 -6.820312 0.832031 -6.78125 C 0.8125 -6.738281 0.820312 -6.695312 0.851562 -6.667969 C 0.976562 -6.53125 1.046875 -6.367188 1.046875 -6.179688 L 1.046875 -0.652344 C 1.046875 -0.46875 0.976562 -0.304688 0.851562 -0.164062 C 0.820312 -0.128906 0.8125 -0.0976562 0.832031 -0.0546875 C 0.847656 -0.015625 0.882812 0 0.929688 0 L 3.433594 0 C 3.820312 0 4.179688 -0.101562 4.496094 -0.308594 C 4.8125 -0.515625 5.078125 -0.8125 5.300781 -1.203125 C 5.457031 -1.5 5.582031 -1.835938 5.671875 -2.214844 C 5.761719 -2.59375 5.808594 -2.992188 5.808594 -3.414062 C 5.808594 -3.828125 5.761719 -4.226562 5.671875 -4.605469 C 5.582031 -4.984375 5.457031 -5.320312 5.300781 -5.625 Z M 4.101562 -1.863281 C 4.035156 -1.742188 3.964844 -1.644531 3.894531 -1.574219 C 3.828125 -1.507812 3.757812 -1.453125 3.703125 -1.425781 C 3.640625 -1.390625 3.585938 -1.371094 3.539062 -1.371094 C 3.488281 -1.363281 3.457031 -1.363281 3.433594 -1.363281 L 2.664062 -1.363281 C 2.59375 -1.363281 2.53125 -1.382812 2.484375 -1.4375 C 2.429688 -1.488281 2.410156 -1.546875 2.410156 -1.617188 L 2.410156 -5.132812 C 2.410156 -5.222656 2.4375 -5.300781 2.503906 -5.367188 C 2.574219 -5.4375 2.65625 -5.472656 2.753906 -5.472656 L 3.433594 -5.472656 C 3.585938 -5.472656 3.730469 -5.410156 3.855469 -5.292969 C 3.976562 -5.167969 4.089844 -5.011719 4.179688 -4.816406 C 4.261719 -4.625 4.328125 -4.40625 4.378906 -4.15625 C 4.417969 -3.910156 4.445312 -3.660156 4.445312 -3.414062 C 4.445312 -3.109375 4.410156 -2.820312 4.355469 -2.554688 C 4.292969 -2.285156 4.210938 -2.058594 4.101562 -1.863281 Z M 4.101562 -1.863281 "></path></g></g></g><g fill="#ffc1b2" fill-opacity="0.502"><g transform="translate(65.107439, 27.519508)"><g><path d="M 5.011719 -6.890625 C 4.894531 -6.78125 4.757812 -6.730469 4.605469 -6.730469 L 0.9375 -6.730469 C 0.886719 -6.730469 0.851562 -6.710938 0.839844 -6.667969 C 0.820312 -6.628906 0.820312 -6.59375 0.847656 -6.558594 L 0.867188 -6.539062 C 0.976562 -6.414062 1.03125 -6.269531 1.03125 -6.105469 L 1.03125 -0.515625 C 1.03125 -0.433594 1.019531 -0.359375 0.992188 -0.28125 C 0.964844 -0.207031 0.921875 -0.136719 0.867188 -0.0820312 L 0.847656 -0.0625 C 0.820312 -0.0195312 0.820312 0.015625 0.839844 0.0546875 C 0.851562 0.0976562 0.886719 0.109375 0.9375 0.109375 L 4.605469 0.109375 C 4.757812 0.109375 4.894531 0.164062 5.011719 0.269531 C 5.046875 0.304688 5.085938 0.308594 5.128906 0.289062 C 5.167969 0.273438 5.195312 0.242188 5.195312 0.1875 L 5.195312 -1.347656 C 5.195312 -1.390625 5.175781 -1.425781 5.132812 -1.445312 C 5.09375 -1.460938 5.050781 -1.453125 5.023438 -1.425781 C 4.902344 -1.308594 4.757812 -1.253906 4.589844 -1.253906 L 2.566406 -1.253906 C 2.519531 -1.253906 2.476562 -1.265625 2.445312 -1.300781 C 2.410156 -1.328125 2.394531 -1.371094 2.394531 -1.425781 L 2.394531 -2.457031 C 2.394531 -2.503906 2.410156 -2.546875 2.445312 -2.582031 C 2.476562 -2.609375 2.519531 -2.628906 2.566406 -2.628906 L 3.171875 -2.628906 C 3.339844 -2.628906 3.484375 -2.566406 3.605469 -2.457031 C 3.640625 -2.429688 3.675781 -2.429688 3.714844 -2.449219 C 3.757812 -2.472656 3.777344 -2.503906 3.777344 -2.546875 L 3.777344 -4.074219 C 3.777344 -4.117188 3.757812 -4.144531 3.714844 -4.164062 C 3.675781 -4.183594 3.640625 -4.183594 3.605469 -4.164062 C 3.484375 -4.046875 3.339844 -3.992188 3.171875 -3.992188 L 2.566406 -3.992188 C 2.519531 -3.992188 2.476562 -4.003906 2.445312 -4.039062 C 2.410156 -4.066406 2.394531 -4.109375 2.394531 -4.164062 L 2.394531 -5.195312 C 2.394531 -5.246094 2.410156 -5.285156 2.445312 -5.320312 C 2.476562 -5.347656 2.519531 -5.367188 2.566406 -5.367188 L 4.589844 -5.367188 C 4.757812 -5.367188 4.902344 -5.304688 5.023438 -5.195312 C 5.050781 -5.160156 5.09375 -5.15625 5.132812 -5.175781 C 5.175781 -5.191406 5.195312 -5.222656 5.195312 -5.273438 L 5.195312 -6.8125 C 5.195312 -6.855469 5.167969 -6.890625 5.128906 -6.910156 C 5.085938 -6.925781 5.046875 -6.917969 5.011719 -6.890625 Z M 5.011719 -6.890625 "></path></g></g></g><g fill="#ffc1b2" fill-opacity="0.502"><g transform="translate(71.129838, 27.519508)"><g><path d="M 5.628906 -0.171875 L 5.527344 -0.253906 C 5.417969 -0.34375 5.320312 -0.453125 5.246094 -0.578125 L 4.390625 -1.941406 C 4.363281 -1.980469 4.351562 -2.03125 4.363281 -2.085938 C 4.378906 -2.132812 4.40625 -2.175781 4.453125 -2.210938 C 4.625 -2.332031 4.777344 -2.472656 4.902344 -2.628906 C 5.085938 -2.855469 5.230469 -3.117188 5.328125 -3.40625 C 5.421875 -3.695312 5.480469 -4 5.480469 -4.316406 C 5.480469 -4.632812 5.421875 -4.941406 5.328125 -5.230469 C 5.230469 -5.519531 5.085938 -5.78125 4.902344 -6.015625 C 4.679688 -6.277344 4.410156 -6.484375 4.109375 -6.628906 C 3.800781 -6.765625 3.460938 -6.839844 3.105469 -6.839844 L 0.929688 -6.839844 C 0.882812 -6.839844 0.847656 -6.820312 0.832031 -6.78125 C 0.8125 -6.738281 0.820312 -6.703125 0.851562 -6.667969 C 0.964844 -6.546875 1.027344 -6.402344 1.027344 -6.234375 L 1.027344 -0.59375 C 1.027344 -0.433594 0.96875 -0.296875 0.867188 -0.179688 C 0.824219 -0.136719 0.820312 -0.101562 0.839844 -0.0625 C 0.851562 -0.0195312 0.886719 0 0.941406 0 L 2.484375 0 C 2.527344 0 2.558594 -0.015625 2.574219 -0.0546875 C 2.589844 -0.0976562 2.589844 -0.128906 2.558594 -0.171875 C 2.445312 -0.296875 2.386719 -0.433594 2.386719 -0.597656 L 2.386719 -1.605469 C 2.386719 -1.660156 2.402344 -1.707031 2.445312 -1.75 C 2.484375 -1.789062 2.53125 -1.808594 2.589844 -1.808594 L 2.753906 -1.808594 C 2.820312 -1.808594 2.882812 -1.777344 2.925781 -1.714844 L 3.773438 -0.351562 C 3.804688 -0.289062 3.800781 -0.234375 3.757812 -0.179688 L 3.75 -0.171875 C 3.722656 -0.128906 3.722656 -0.0976562 3.746094 -0.0546875 C 3.757812 -0.015625 3.792969 0 3.839844 0 L 5.582031 0 C 5.628906 0 5.65625 -0.0195312 5.671875 -0.0625 C 5.683594 -0.101562 5.671875 -0.136719 5.628906 -0.171875 Z M 3.847656 -3.496094 C 3.675781 -3.277344 3.425781 -3.171875 3.105469 -3.171875 L 2.589844 -3.171875 C 2.53125 -3.171875 2.484375 -3.1875 2.445312 -3.226562 C 2.402344 -3.269531 2.386719 -3.316406 2.386719 -3.371094 L 2.386719 -5.273438 C 2.386719 -5.328125 2.402344 -5.375 2.445312 -5.417969 C 2.484375 -5.457031 2.53125 -5.480469 2.589844 -5.480469 L 3.105469 -5.480469 C 3.351562 -5.480469 3.539062 -5.421875 3.675781 -5.3125 C 3.8125 -5.203125 3.910156 -5.078125 3.976562 -4.941406 C 4.039062 -4.804688 4.082031 -4.671875 4.09375 -4.550781 C 4.109375 -4.425781 4.117188 -4.34375 4.117188 -4.316406 C 4.117188 -4.148438 4.089844 -4 4.046875 -3.859375 C 4 -3.722656 3.929688 -3.601562 3.847656 -3.496094 Z M 3.847656 -3.496094 "></path></g></g></g><g fill="#ffc1b2" fill-opacity="0.502"><g transform="translate(77.634029, 27.519508)"><g><path d="M 2.382812 -0.605469 L 2.382812 -6.234375 C 2.382812 -6.402344 2.4375 -6.546875 2.546875 -6.667969 C 2.566406 -6.703125 2.566406 -6.738281 2.554688 -6.78125 C 2.53125 -6.820312 2.5 -6.839844 2.457031 -6.839844 L 0.9375 -6.839844 C 0.886719 -6.839844 0.851562 -6.820312 0.839844 -6.78125 C 0.820312 -6.738281 0.820312 -6.703125 0.847656 -6.667969 C 0.957031 -6.546875 1.019531 -6.402344 1.019531 -6.234375 L 1.019531 -0.605469 C 1.019531 -0.441406 0.957031 -0.296875 0.847656 -0.171875 C 0.820312 -0.128906 0.820312 -0.0976562 0.839844 -0.0546875 C 0.851562 -0.015625 0.886719 0 0.9375 0 L 2.457031 0 C 2.5 0 2.53125 -0.015625 2.554688 -0.0546875 C 2.566406 -0.0976562 2.566406 -0.128906 2.546875 -0.171875 C 2.492188 -0.226562 2.449219 -0.296875 2.421875 -0.371094 C 2.394531 -0.449219 2.382812 -0.523438 2.382812 -0.605469 Z M 2.382812 -0.605469 "></path></g></g></g><g fill="#ffc1b2" fill-opacity="0.502"><g transform="translate(81.034102, 27.519508)"><g><path d="M 6.214844 -0.191406 C 6.035156 -0.332031 5.890625 -0.496094 5.789062 -0.703125 L 4.523438 -3.117188 C 4.417969 -3.316406 4.417969 -3.515625 4.523438 -3.722656 L 5.789062 -6.140625 C 5.890625 -6.339844 6.035156 -6.511719 6.214844 -6.648438 C 6.261719 -6.691406 6.277344 -6.730469 6.25 -6.78125 C 6.230469 -6.820312 6.195312 -6.839844 6.152344 -6.839844 L 4.453125 -6.839844 C 4.40625 -6.839844 4.371094 -6.820312 4.355469 -6.78125 C 4.335938 -6.738281 4.335938 -6.703125 4.363281 -6.667969 C 4.433594 -6.59375 4.4375 -6.511719 4.398438 -6.421875 L 3.53125 -4.761719 C 3.488281 -4.679688 3.421875 -4.644531 3.339844 -4.644531 C 3.25 -4.644531 3.1875 -4.679688 3.144531 -4.761719 L 2.277344 -6.429688 C 2.25 -6.460938 2.242188 -6.503906 2.25 -6.550781 C 2.257812 -6.59375 2.277344 -6.636719 2.3125 -6.667969 C 2.339844 -6.703125 2.339844 -6.738281 2.328125 -6.78125 C 2.3125 -6.820312 2.277344 -6.839844 2.238281 -6.839844 L 0.523438 -6.839844 C 0.476562 -6.839844 0.441406 -6.820312 0.425781 -6.78125 C 0.414062 -6.753906 0.40625 -6.730469 0.414062 -6.710938 C 0.417969 -6.683594 0.433594 -6.664062 0.453125 -6.648438 L 0.460938 -6.648438 C 0.640625 -6.511719 0.777344 -6.339844 0.886719 -6.140625 L 2.152344 -3.722656 C 2.25 -3.515625 2.25 -3.316406 2.152344 -3.117188 L 0.886719 -0.703125 C 0.777344 -0.496094 0.640625 -0.332031 0.460938 -0.191406 L 0.453125 -0.191406 C 0.433594 -0.171875 0.417969 -0.152344 0.414062 -0.128906 C 0.40625 -0.101562 0.414062 -0.0820312 0.425781 -0.0625 C 0.441406 -0.0195312 0.476562 0 0.523438 0 L 2.238281 0 C 2.277344 0 2.3125 -0.015625 2.328125 -0.0546875 C 2.339844 -0.0976562 2.339844 -0.128906 2.3125 -0.171875 C 2.277344 -0.199219 2.257812 -0.242188 2.25 -0.289062 C 2.242188 -0.332031 2.25 -0.371094 2.277344 -0.414062 L 3.144531 -2.078125 C 3.1875 -2.152344 3.25 -2.195312 3.339844 -2.195312 C 3.421875 -2.195312 3.488281 -2.152344 3.53125 -2.078125 L 4.398438 -0.417969 C 4.4375 -0.324219 4.433594 -0.242188 4.363281 -0.171875 C 4.335938 -0.128906 4.335938 -0.0976562 4.355469 -0.0546875 C 4.371094 -0.015625 4.40625 0 4.453125 0 L 6.152344 0 C 6.195312 0 6.230469 -0.0195312 6.25 -0.0625 C 6.277344 -0.101562 6.261719 -0.152344 6.214844 -0.191406 Z M 6.214844 -0.191406 "></path></g></g></g><g fill="#fffaef" fill-opacity="1"><g transform="translate(34.386086, 27.596825)"><g><path d="M 4.726562 -7.1875 C 4.613281 -7.074219 4.472656 -7.027344 4.324219 -7.027344 L 3.648438 -7.027344 C 3.144531 -7.027344 2.691406 -6.929688 2.277344 -6.746094 C 1.863281 -6.558594 1.515625 -6.285156 1.210938 -5.925781 C 0.949219 -5.609375 0.75 -5.257812 0.613281 -4.859375 C 0.476562 -4.460938 0.414062 -4.046875 0.414062 -3.605469 C 0.414062 -3.179688 0.480469 -2.761719 0.621094 -2.355469 C 0.757812 -1.941406 0.957031 -1.574219 1.230469 -1.257812 C 1.507812 -0.9375 1.84375 -0.675781 2.242188 -0.480469 C 2.644531 -0.28125 3.109375 -0.1875 3.648438 -0.1875 L 4.324219 -0.1875 C 4.472656 -0.1875 4.613281 -0.128906 4.726562 -0.0273438 C 4.761719 0.0078125 4.804688 0.015625 4.84375 -0.0078125 C 4.886719 -0.0195312 4.90625 -0.0546875 4.90625 -0.109375 L 4.90625 -1.644531 C 4.90625 -1.6875 4.886719 -1.71875 4.84375 -1.742188 C 4.804688 -1.753906 4.769531 -1.75 4.742188 -1.71875 C 4.613281 -1.605469 4.46875 -1.546875 4.308594 -1.546875 L 3.648438 -1.546875 C 3.277344 -1.546875 2.964844 -1.617188 2.726562 -1.761719 C 2.484375 -1.898438 2.292969 -2.078125 2.152344 -2.292969 C 2.015625 -2.5 1.914062 -2.726562 1.859375 -2.960938 C 1.804688 -3.195312 1.777344 -3.414062 1.777344 -3.605469 C 1.777344 -3.882812 1.816406 -4.144531 1.898438 -4.398438 C 1.980469 -4.644531 2.105469 -4.867188 2.257812 -5.050781 C 2.59375 -5.457031 3.054688 -5.664062 3.648438 -5.664062 L 4.308594 -5.664062 C 4.46875 -5.664062 4.613281 -5.601562 4.742188 -5.492188 C 4.769531 -5.457031 4.804688 -5.449219 4.84375 -5.472656 C 4.886719 -5.484375 4.90625 -5.519531 4.90625 -5.566406 L 4.90625 -7.109375 C 4.90625 -7.152344 4.886719 -7.1875 4.84375 -7.207031 C 4.804688 -7.21875 4.761719 -7.214844 4.726562 -7.1875 Z M 4.726562 -7.1875 "></path></g></g></g><g fill="#fffaef" fill-opacity="1"><g transform="translate(40.12629, 27.596825)"><g><path d="M 5.003906 -1.519531 L 4.921875 -1.453125 C 4.84375 -1.382812 4.761719 -1.355469 4.671875 -1.355469 L 2.539062 -1.355469 C 2.492188 -1.355469 2.449219 -1.371094 2.421875 -1.398438 C 2.386719 -1.425781 2.375 -1.464844 2.375 -1.519531 L 2.375 -6.230469 C 2.375 -6.386719 2.429688 -6.53125 2.539062 -6.65625 L 2.546875 -6.664062 C 2.566406 -6.695312 2.566406 -6.730469 2.554688 -6.773438 C 2.53125 -6.808594 2.5 -6.828125 2.457031 -6.828125 L 0.9375 -6.828125 C 0.886719 -6.828125 0.851562 -6.808594 0.839844 -6.773438 C 0.820312 -6.730469 0.820312 -6.695312 0.847656 -6.664062 C 0.957031 -6.539062 1.011719 -6.394531 1.011719 -6.234375 L 1.011719 -0.152344 C 1.011719 -0.101562 1.027344 -0.0625 1.058594 -0.0351562 C 1.085938 0 1.128906 0.015625 1.175781 0.015625 L 4.671875 0.015625 C 4.761719 0.015625 4.84375 0.046875 4.921875 0.109375 L 5.003906 0.179688 C 5.039062 0.207031 5.074219 0.207031 5.113281 0.1875 C 5.148438 0.171875 5.167969 0.136719 5.167969 0.0898438 L 5.167969 -1.429688 C 5.167969 -1.472656 5.148438 -1.507812 5.113281 -1.527344 C 5.074219 -1.542969 5.039062 -1.542969 5.003906 -1.519531 Z M 5.003906 -1.519531 "></path></g></g></g><g fill="#fffaef" fill-opacity="1"><g transform="translate(45.715076, 27.596825)"><g><path d="M 5.203125 -5.769531 C 4.941406 -6.113281 4.632812 -6.375 4.289062 -6.558594 C 3.9375 -6.738281 3.570312 -6.835938 3.1875 -6.835938 C 2.800781 -6.835938 2.429688 -6.738281 2.078125 -6.558594 C 1.726562 -6.375 1.425781 -6.113281 1.164062 -5.769531 C 0.914062 -5.445312 0.730469 -5.078125 0.605469 -4.679688 C 0.476562 -4.28125 0.414062 -3.855469 0.414062 -3.414062 C 0.414062 -2.972656 0.476562 -2.546875 0.605469 -2.148438 C 0.730469 -1.742188 0.914062 -1.382812 1.164062 -1.066406 C 1.425781 -0.722656 1.726562 -0.453125 2.078125 -0.273438 C 2.429688 -0.0898438 2.800781 0 3.1875 0 C 3.570312 0 3.9375 -0.0898438 4.289062 -0.273438 C 4.632812 -0.453125 4.941406 -0.722656 5.203125 -1.066406 C 5.449219 -1.382812 5.636719 -1.742188 5.769531 -2.148438 C 5.890625 -2.546875 5.960938 -2.972656 5.960938 -3.414062 C 5.960938 -3.855469 5.890625 -4.28125 5.769531 -4.679688 C 5.636719 -5.078125 5.449219 -5.445312 5.203125 -5.769531 Z M 3.1875 -1.363281 C 2.992188 -1.363281 2.808594 -1.417969 2.644531 -1.527344 C 2.472656 -1.636719 2.320312 -1.78125 2.195312 -1.96875 C 2.066406 -2.152344 1.960938 -2.375 1.886719 -2.621094 C 1.808594 -2.871094 1.777344 -3.132812 1.777344 -3.414062 C 1.777344 -3.6875 1.808594 -3.957031 1.886719 -4.207031 C 1.960938 -4.453125 2.066406 -4.667969 2.195312 -4.859375 C 2.320312 -5.046875 2.472656 -5.195312 2.644531 -5.304688 C 2.808594 -5.417969 2.992188 -5.472656 3.1875 -5.472656 C 3.378906 -5.472656 3.558594 -5.417969 3.730469 -5.304688 C 3.894531 -5.195312 4.046875 -5.046875 4.171875 -4.859375 C 4.292969 -4.667969 4.398438 -4.453125 4.472656 -4.207031 C 4.550781 -3.957031 4.589844 -3.6875 4.589844 -3.414062 C 4.589844 -3.132812 4.550781 -2.871094 4.472656 -2.621094 C 4.398438 -2.375 4.292969 -2.152344 4.171875 -1.96875 C 4.046875 -1.78125 3.894531 -1.636719 3.730469 -1.527344 C 3.558594 -1.417969 3.378906 -1.363281 3.1875 -1.363281 Z M 3.1875 -1.363281 "></path></g></g></g><g fill="#fffaef" fill-opacity="1"><g transform="translate(52.088495, 27.596825)"><g><path d="M 5.898438 -6.835938 L 4.378906 -6.835938 C 4.328125 -6.835938 4.292969 -6.8125 4.28125 -6.78125 C 4.261719 -6.738281 4.261719 -6.703125 4.289062 -6.667969 C 4.398438 -6.539062 4.460938 -6.394531 4.460938 -6.234375 L 4.460938 -2.222656 C 4.460938 -2.007812 4.40625 -1.84375 4.308594 -1.734375 C 4.210938 -1.617188 4.101562 -1.535156 3.976562 -1.480469 C 3.855469 -1.425781 3.738281 -1.390625 3.628906 -1.375 C 3.515625 -1.363281 3.449219 -1.363281 3.421875 -1.363281 C 3.394531 -1.363281 3.316406 -1.363281 3.207031 -1.375 C 3.097656 -1.390625 2.980469 -1.425781 2.855469 -1.480469 C 2.734375 -1.535156 2.621094 -1.617188 2.527344 -1.734375 C 2.429688 -1.84375 2.382812 -2.007812 2.382812 -2.222656 L 2.382812 -6.234375 C 2.382812 -6.402344 2.4375 -6.546875 2.546875 -6.667969 C 2.566406 -6.703125 2.566406 -6.738281 2.554688 -6.78125 C 2.53125 -6.8125 2.5 -6.835938 2.457031 -6.835938 L 0.9375 -6.835938 C 0.886719 -6.835938 0.851562 -6.8125 0.839844 -6.78125 C 0.820312 -6.738281 0.820312 -6.703125 0.847656 -6.667969 C 0.957031 -6.546875 1.011719 -6.402344 1.011719 -6.234375 L 1.011719 -2.222656 C 1.011719 -1.878906 1.082031 -1.5625 1.21875 -1.273438 C 1.355469 -0.984375 1.546875 -0.738281 1.808594 -0.53125 C 2.03125 -0.351562 2.277344 -0.21875 2.554688 -0.128906 C 2.828125 -0.0351562 3.117188 0.0078125 3.421875 0.0078125 C 3.722656 0.0078125 4.003906 -0.0351562 4.28125 -0.128906 C 4.554688 -0.21875 4.804688 -0.351562 5.023438 -0.53125 C 5.285156 -0.738281 5.480469 -0.984375 5.617188 -1.273438 C 5.753906 -1.5625 5.824219 -1.878906 5.824219 -2.222656 L 5.824219 -6.234375 C 5.824219 -6.386719 5.878906 -6.53125 5.988281 -6.667969 C 6.015625 -6.703125 6.015625 -6.738281 5.996094 -6.78125 C 5.972656 -6.8125 5.941406 -6.835938 5.898438 -6.835938 Z M 5.898438 -6.835938 "></path></g></g></g><g fill="#fffaef" fill-opacity="1"><g transform="translate(58.929937, 27.596825)"><g><path d="M 5.300781 -5.625 C 5.078125 -6.015625 4.8125 -6.316406 4.496094 -6.523438 C 4.179688 -6.730469 3.820312 -6.839844 3.433594 -6.839844 L 0.929688 -6.839844 C 0.882812 -6.839844 0.847656 -6.820312 0.832031 -6.78125 C 0.8125 -6.738281 0.820312 -6.695312 0.851562 -6.667969 C 0.976562 -6.53125 1.046875 -6.367188 1.046875 -6.179688 L 1.046875 -0.652344 C 1.046875 -0.46875 0.976562 -0.304688 0.851562 -0.164062 C 0.820312 -0.128906 0.8125 -0.0976562 0.832031 -0.0546875 C 0.847656 -0.015625 0.882812 0 0.929688 0 L 3.433594 0 C 3.820312 0 4.179688 -0.101562 4.496094 -0.308594 C 4.8125 -0.515625 5.078125 -0.8125 5.300781 -1.203125 C 5.457031 -1.5 5.582031 -1.835938 5.671875 -2.214844 C 5.761719 -2.59375 5.808594 -2.992188 5.808594 -3.414062 C 5.808594 -3.828125 5.761719 -4.226562 5.671875 -4.605469 C 5.582031 -4.984375 5.457031 -5.320312 5.300781 -5.625 Z M 4.101562 -1.863281 C 4.035156 -1.742188 3.964844 -1.644531 3.894531 -1.574219 C 3.828125 -1.507812 3.757812 -1.453125 3.703125 -1.425781 C 3.640625 -1.390625 3.585938 -1.371094 3.539062 -1.371094 C 3.488281 -1.363281 3.457031 -1.363281 3.433594 -1.363281 L 2.664062 -1.363281 C 2.59375 -1.363281 2.53125 -1.382812 2.484375 -1.4375 C 2.429688 -1.488281 2.410156 -1.546875 2.410156 -1.617188 L 2.410156 -5.132812 C 2.410156 -5.222656 2.4375 -5.300781 2.503906 -5.367188 C 2.574219 -5.4375 2.65625 -5.472656 2.753906 -5.472656 L 3.433594 -5.472656 C 3.585938 -5.472656 3.730469 -5.410156 3.855469 -5.292969 C 3.976562 -5.167969 4.089844 -5.011719 4.179688 -4.816406 C 4.261719 -4.625 4.328125 -4.40625 4.378906 -4.15625 C 4.417969 -3.910156 4.445312 -3.660156 4.445312 -3.414062 C 4.445312 -3.109375 4.410156 -2.820312 4.355469 -2.554688 C 4.292969 -2.285156 4.210938 -2.058594 4.101562 -1.863281 Z M 4.101562 -1.863281 "></path></g></g></g><g fill="#fffaef" fill-opacity="1"><g transform="translate(65.289588, 27.596825)"><g><path d="M 5.011719 -6.890625 C 4.894531 -6.78125 4.757812 -6.730469 4.605469 -6.730469 L 0.9375 -6.730469 C 0.886719 -6.730469 0.851562 -6.710938 0.839844 -6.667969 C 0.820312 -6.628906 0.820312 -6.59375 0.847656 -6.558594 L 0.867188 -6.539062 C 0.976562 -6.414062 1.03125 -6.269531 1.03125 -6.105469 L 1.03125 -0.515625 C 1.03125 -0.433594 1.019531 -0.359375 0.992188 -0.28125 C 0.964844 -0.207031 0.921875 -0.136719 0.867188 -0.0820312 L 0.847656 -0.0625 C 0.820312 -0.0195312 0.820312 0.015625 0.839844 0.0546875 C 0.851562 0.0976562 0.886719 0.109375 0.9375 0.109375 L 4.605469 0.109375 C 4.757812 0.109375 4.894531 0.164062 5.011719 0.269531 C 5.046875 0.304688 5.085938 0.308594 5.128906 0.289062 C 5.167969 0.273438 5.195312 0.242188 5.195312 0.1875 L 5.195312 -1.347656 C 5.195312 -1.390625 5.175781 -1.425781 5.132812 -1.445312 C 5.09375 -1.460938 5.050781 -1.453125 5.023438 -1.425781 C 4.902344 -1.308594 4.757812 -1.253906 4.589844 -1.253906 L 2.566406 -1.253906 C 2.519531 -1.253906 2.476562 -1.265625 2.445312 -1.300781 C 2.410156 -1.328125 2.394531 -1.371094 2.394531 -1.425781 L 2.394531 -2.457031 C 2.394531 -2.503906 2.410156 -2.546875 2.445312 -2.582031 C 2.476562 -2.609375 2.519531 -2.628906 2.566406 -2.628906 L 3.171875 -2.628906 C 3.339844 -2.628906 3.484375 -2.566406 3.605469 -2.457031 C 3.640625 -2.429688 3.675781 -2.429688 3.714844 -2.449219 C 3.757812 -2.472656 3.777344 -2.503906 3.777344 -2.546875 L 3.777344 -4.074219 C 3.777344 -4.117188 3.757812 -4.144531 3.714844 -4.164062 C 3.675781 -4.183594 3.640625 -4.183594 3.605469 -4.164062 C 3.484375 -4.046875 3.339844 -3.992188 3.171875 -3.992188 L 2.566406 -3.992188 C 2.519531 -3.992188 2.476562 -4.003906 2.445312 -4.039062 C 2.410156 -4.066406 2.394531 -4.109375 2.394531 -4.164062 L 2.394531 -5.195312 C 2.394531 -5.246094 2.410156 -5.285156 2.445312 -5.320312 C 2.476562 -5.347656 2.519531 -5.367188 2.566406 -5.367188 L 4.589844 -5.367188 C 4.757812 -5.367188 4.902344 -5.304688 5.023438 -5.195312 C 5.050781 -5.160156 5.09375 -5.15625 5.132812 -5.175781 C 5.175781 -5.191406 5.195312 -5.222656 5.195312 -5.273438 L 5.195312 -6.8125 C 5.195312 -6.855469 5.167969 -6.890625 5.128906 -6.910156 C 5.085938 -6.925781 5.046875 -6.917969 5.011719 -6.890625 Z M 5.011719 -6.890625 "></path></g></g></g><g fill="#fffaef" fill-opacity="1"><g transform="translate(71.311987, 27.596825)"><g><path d="M 5.628906 -0.171875 L 5.527344 -0.253906 C 5.417969 -0.34375 5.320312 -0.453125 5.246094 -0.578125 L 4.390625 -1.941406 C 4.363281 -1.980469 4.351562 -2.03125 4.363281 -2.085938 C 4.378906 -2.132812 4.40625 -2.175781 4.453125 -2.210938 C 4.625 -2.332031 4.777344 -2.472656 4.902344 -2.628906 C 5.085938 -2.855469 5.230469 -3.117188 5.328125 -3.40625 C 5.421875 -3.695312 5.480469 -4 5.480469 -4.316406 C 5.480469 -4.632812 5.421875 -4.941406 5.328125 -5.230469 C 5.230469 -5.519531 5.085938 -5.78125 4.902344 -6.015625 C 4.679688 -6.277344 4.410156 -6.484375 4.109375 -6.628906 C 3.800781 -6.765625 3.460938 -6.839844 3.105469 -6.839844 L 0.929688 -6.839844 C 0.882812 -6.839844 0.847656 -6.820312 0.832031 -6.78125 C 0.8125 -6.738281 0.820312 -6.703125 0.851562 -6.667969 C 0.964844 -6.546875 1.027344 -6.402344 1.027344 -6.234375 L 1.027344 -0.59375 C 1.027344 -0.433594 0.96875 -0.296875 0.867188 -0.179688 C 0.824219 -0.136719 0.820312 -0.101562 0.839844 -0.0625 C 0.851562 -0.0195312 0.886719 0 0.941406 0 L 2.484375 0 C 2.527344 0 2.558594 -0.015625 2.574219 -0.0546875 C 2.589844 -0.0976562 2.589844 -0.128906 2.558594 -0.171875 C 2.445312 -0.296875 2.386719 -0.433594 2.386719 -0.597656 L 2.386719 -1.605469 C 2.386719 -1.660156 2.402344 -1.707031 2.445312 -1.75 C 2.484375 -1.789062 2.53125 -1.808594 2.589844 -1.808594 L 2.753906 -1.808594 C 2.820312 -1.808594 2.882812 -1.777344 2.925781 -1.714844 L 3.773438 -0.351562 C 3.804688 -0.289062 3.800781 -0.234375 3.757812 -0.179688 L 3.75 -0.171875 C 3.722656 -0.128906 3.722656 -0.0976562 3.746094 -0.0546875 C 3.757812 -0.015625 3.792969 0 3.839844 0 L 5.582031 0 C 5.628906 0 5.65625 -0.0195312 5.671875 -0.0625 C 5.683594 -0.101562 5.671875 -0.136719 5.628906 -0.171875 Z M 3.847656 -3.496094 C 3.675781 -3.277344 3.425781 -3.171875 3.105469 -3.171875 L 2.589844 -3.171875 C 2.53125 -3.171875 2.484375 -3.1875 2.445312 -3.226562 C 2.402344 -3.269531 2.386719 -3.316406 2.386719 -3.371094 L 2.386719 -5.273438 C 2.386719 -5.328125 2.402344 -5.375 2.445312 -5.417969 C 2.484375 -5.457031 2.53125 -5.480469 2.589844 -5.480469 L 3.105469 -5.480469 C 3.351562 -5.480469 3.539062 -5.421875 3.675781 -5.3125 C 3.8125 -5.203125 3.910156 -5.078125 3.976562 -4.941406 C 4.039062 -4.804688 4.082031 -4.671875 4.09375 -4.550781 C 4.109375 -4.425781 4.117188 -4.34375 4.117188 -4.316406 C 4.117188 -4.148438 4.089844 -4 4.046875 -3.859375 C 4 -3.722656 3.929688 -3.601562 3.847656 -3.496094 Z M 3.847656 -3.496094 "></path></g></g></g><g fill="#fffaef" fill-opacity="1"><g transform="translate(77.816178, 27.596825)"><g><path d="M 2.382812 -0.605469 L 2.382812 -6.234375 C 2.382812 -6.402344 2.4375 -6.546875 2.546875 -6.667969 C 2.566406 -6.703125 2.566406 -6.738281 2.554688 -6.78125 C 2.53125 -6.820312 2.5 -6.839844 2.457031 -6.839844 L 0.9375 -6.839844 C 0.886719 -6.839844 0.851562 -6.820312 0.839844 -6.78125 C 0.820312 -6.738281 0.820312 -6.703125 0.847656 -6.667969 C 0.957031 -6.546875 1.019531 -6.402344 1.019531 -6.234375 L 1.019531 -0.605469 C 1.019531 -0.441406 0.957031 -0.296875 0.847656 -0.171875 C 0.820312 -0.128906 0.820312 -0.0976562 0.839844 -0.0546875 C 0.851562 -0.015625 0.886719 0 0.9375 0 L 2.457031 0 C 2.5 0 2.53125 -0.015625 2.554688 -0.0546875 C 2.566406 -0.0976562 2.566406 -0.128906 2.546875 -0.171875 C 2.492188 -0.226562 2.449219 -0.296875 2.421875 -0.371094 C 2.394531 -0.449219 2.382812 -0.523438 2.382812 -0.605469 Z M 2.382812 -0.605469 "></path></g></g></g><g fill="#fffaef" fill-opacity="1"><g transform="translate(81.216251, 27.596825)"><g><path d="M 6.214844 -0.191406 C 6.035156 -0.332031 5.890625 -0.496094 5.789062 -0.703125 L 4.523438 -3.117188 C 4.417969 -3.316406 4.417969 -3.515625 4.523438 -3.722656 L 5.789062 -6.140625 C 5.890625 -6.339844 6.035156 -6.511719 6.214844 -6.648438 C 6.261719 -6.691406 6.277344 -6.730469 6.25 -6.78125 C 6.230469 -6.820312 6.195312 -6.839844 6.152344 -6.839844 L 4.453125 -6.839844 C 4.40625 -6.839844 4.371094 -6.820312 4.355469 -6.78125 C 4.335938 -6.738281 4.335938 -6.703125 4.363281 -6.667969 C 4.433594 -6.59375 4.4375 -6.511719 4.398438 -6.421875 L 3.53125 -4.761719 C 3.488281 -4.679688 3.421875 -4.644531 3.339844 -4.644531 C 3.25 -4.644531 3.1875 -4.679688 3.144531 -4.761719 L 2.277344 -6.429688 C 2.25 -6.460938 2.242188 -6.503906 2.25 -6.550781 C 2.257812 -6.59375 2.277344 -6.636719 2.3125 -6.667969 C 2.339844 -6.703125 2.339844 -6.738281 2.328125 -6.78125 C 2.3125 -6.820312 2.277344 -6.839844 2.238281 -6.839844 L 0.523438 -6.839844 C 0.476562 -6.839844 0.441406 -6.820312 0.425781 -6.78125 C 0.414062 -6.753906 0.40625 -6.730469 0.414062 -6.710938 C 0.417969 -6.683594 0.433594 -6.664062 0.453125 -6.648438 L 0.460938 -6.648438 C 0.640625 -6.511719 0.777344 -6.339844 0.886719 -6.140625 L 2.152344 -3.722656 C 2.25 -3.515625 2.25 -3.316406 2.152344 -3.117188 L 0.886719 -0.703125 C 0.777344 -0.496094 0.640625 -0.332031 0.460938 -0.191406 L 0.453125 -0.191406 C 0.433594 -0.171875 0.417969 -0.152344 0.414062 -0.128906 C 0.40625 -0.101562 0.414062 -0.0820312 0.425781 -0.0625 C 0.441406 -0.0195312 0.476562 0 0.523438 0 L 2.238281 0 C 2.277344 0 2.3125 -0.015625 2.328125 -0.0546875 C 2.339844 -0.0976562 2.339844 -0.128906 2.3125 -0.171875 C 2.277344 -0.199219 2.257812 -0.242188 2.25 -0.289062 C 2.242188 -0.332031 2.25 -0.371094 2.277344 -0.414062 L 3.144531 -2.078125 C 3.1875 -2.152344 3.25 -2.195312 3.339844 -2.195312 C 3.421875 -2.195312 3.488281 -2.152344 3.53125 -2.078125 L 4.398438 -0.417969 C 4.4375 -0.324219 4.433594 -0.242188 4.363281 -0.171875 C 4.335938 -0.128906 4.335938 -0.0976562 4.355469 -0.0546875 C 4.371094 -0.015625 4.40625 0 4.453125 0 L 6.152344 0 C 6.195312 0 6.230469 -0.0195312 6.25 -0.0625 C 6.277344 -0.101562 6.261719 -0.152344 6.214844 -0.191406 Z M 6.214844 -0.191406 "></path></g></g></g></svg>